<?xml version="1.0" encoding="UTF-8"?>
<!DOCTYPE svg PUBLIC "-//W3C//DTD SVG 1.1//EN" "http://www.w3.org/Graphics/SVG/1.1/DTD/svg11.dtd">
<svg version="1.2" width="11.5mm" height="11.2mm" viewBox="0 0 1150 1120" preserveAspectRatio="xMidYMid" fill-rule="evenodd" stroke-width="28.222" stroke-linejoin="round" xmlns="http://www.w3.org/2000/svg" xmlns:ooo="http://xml.openoffice.org/svg/export" xmlns:xlink="http://www.w3.org/1999/xlink" xmlns:presentation="http://sun.com/xmlns/staroffice/presentation" xmlns:smil="http://www.w3.org/2001/SMIL20/" xmlns:anim="urn:oasis:names:tc:opendocument:xmlns:animation:1.0" xml:space="preserve">
 <defs class="ClipPathGroup">
  <clipPath id="presentation_clip_path" clipPathUnits="userSpaceOnUse">
   <rect x="0" y="0" width="1150" height="1120"/>
  </clipPath>
  <clipPath id="presentation_clip_path_shrink" clipPathUnits="userSpaceOnUse">
   <rect x="1" y="1" width="1148" height="1118"/>
  </clipPath>
 </defs>
 <defs class="TextShapeIndex">
  <g ooo:slide="id1" ooo:id-list="id3 id4 id5 id6 id7 id8 id9 id10 id11 id12 id13 id14 id15 id16 id17 id18 id19 id20 id21 id22 id23 id24 id25 id26 id27 id28 id29 id30 id31 id32 id33 id34 id35 id36 id37 id38 id39 id40 id41 id42 id43 id44 id45 id46 id47 id48 id49 id50 id51 id52 id53 id54 id55 id56 id57 id58 id59 id60 id61 id62 id63 id64 id65 id66 id67 id68 id69 id70 id71 id72 id73 id74 id75 id76 id77 id78 id79 id80 id81 id82 id83 id84 id85 id86 id87 id88 id89 id90 id91 id92 id93"/>
 </defs>
 <defs class="EmbeddedBulletChars">
  <g id="bullet-char-template-57356" transform="scale(0.00048828125,-0.00048828125)">
   <path d="M 580,1141 L 1163,571 580,0 -4,571 580,1141 Z"/>
  </g>
  <g id="bullet-char-template-57354" transform="scale(0.00048828125,-0.00048828125)">
   <path d="M 8,1128 L 1137,1128 1137,0 8,0 8,1128 Z"/>
  </g>
  <g id="bullet-char-template-10146" transform="scale(0.00048828125,-0.00048828125)">
   <path d="M 174,0 L 602,739 174,1481 1456,739 174,0 Z M 1358,739 L 309,1346 659,739 1358,739 Z"/>
  </g>
  <g id="bullet-char-template-10132" transform="scale(0.00048828125,-0.00048828125)">
   <path d="M 2015,739 L 1276,0 717,0 1260,543 174,543 174,936 1260,936 717,1481 1274,1481 2015,739 Z"/>
  </g>
  <g id="bullet-char-template-10007" transform="scale(0.00048828125,-0.00048828125)">
   <path d="M 0,-2 C -7,14 -16,27 -25,37 L 356,567 C 262,823 215,952 215,954 215,979 228,992 255,992 264,992 276,990 289,987 310,991 331,999 354,1012 L 381,999 492,748 772,1049 836,1024 860,1049 C 881,1039 901,1025 922,1006 886,937 835,863 770,784 769,783 710,716 594,584 L 774,223 C 774,196 753,168 711,139 L 727,119 C 717,90 699,76 672,76 641,76 570,178 457,381 L 164,-76 C 142,-110 111,-127 72,-127 30,-127 9,-110 8,-76 1,-67 -2,-52 -2,-32 -2,-23 -1,-13 0,-2 Z"/>
  </g>
  <g id="bullet-char-template-10004" transform="scale(0.00048828125,-0.00048828125)">
   <path d="M 285,-33 C 182,-33 111,30 74,156 52,228 41,333 41,471 41,549 55,616 82,672 116,743 169,778 240,778 293,778 328,747 346,684 L 369,508 C 377,444 397,411 428,410 L 1163,1116 C 1174,1127 1196,1133 1229,1133 1271,1133 1292,1118 1292,1087 L 1292,965 C 1292,929 1282,901 1262,881 L 442,47 C 390,-6 338,-33 285,-33 Z"/>
  </g>
  <g id="bullet-char-template-9679" transform="scale(0.00048828125,-0.00048828125)">
   <path d="M 813,0 C 632,0 489,54 383,161 276,268 223,411 223,592 223,773 276,916 383,1023 489,1130 632,1184 813,1184 992,1184 1136,1130 1245,1023 1353,916 1407,772 1407,592 1407,412 1353,268 1245,161 1136,54 992,0 813,0 Z"/>
  </g>
  <g id="bullet-char-template-8226" transform="scale(0.00048828125,-0.00048828125)">
   <path d="M 346,457 C 273,457 209,483 155,535 101,586 74,649 74,723 74,796 101,859 155,911 209,963 273,989 346,989 419,989 480,963 531,910 582,859 608,796 608,723 608,648 583,586 532,535 482,483 420,457 346,457 Z"/>
  </g>
  <g id="bullet-char-template-8211" transform="scale(0.00048828125,-0.00048828125)">
   <path d="M -4,459 L 1135,459 1135,606 -4,606 -4,459 Z"/>
  </g>
  <g id="bullet-char-template-61548" transform="scale(0.00048828125,-0.00048828125)">
   <path d="M 173,740 C 173,903 231,1043 346,1159 462,1274 601,1332 765,1332 928,1332 1067,1274 1183,1159 1299,1043 1357,903 1357,740 1357,577 1299,437 1183,322 1067,206 928,148 765,148 601,148 462,206 346,322 231,437 173,577 173,740 Z"/>
  </g>
 </defs>
 <g>
  <g id="id2" class="Master_Slide">
   <g id="bg-id2" class="Background"/>
   <g id="bo-id2" class="BackgroundObjects"/>
  </g>
 </g>
 <g class="SlideGroup">
  <g>
   <g id="container-id1">
    <g id="id1" class="Slide" clip-path="url(#presentation_clip_path)">
     <g class="Page">
      <g class="com.sun.star.drawing.PolyPolygonShape">
       <g id="id3">
        <rect class="BoundingBox" stroke="none" fill="none" x="0" y="9736" width="18733" height="9738"/>
        <path fill="rgb(35,31,32)" stroke="none" d="M 0,19473 L 18732,19473 18732,9736 0,9736 0,19473 Z"/>
       </g>
      </g>
      <g class="com.sun.star.drawing.ClosedBezierShape">
       <g id="id4">
        <rect class="BoundingBox" stroke="none" fill="none" x="0" y="-1" width="1151" height="1124"/>
        <path fill="rgb(27,24,23)" stroke="none" d="M 575,0 C 257,0 0,258 0,575 0,829 164,1045 394,1121 422,1126 433,1108 433,1093 433,1079 432,1043 432,995 271,1030 237,918 237,918 211,852 174,834 174,834 121,799 178,799 178,799 235,803 266,858 266,858 317,946 401,921 434,906 439,869 454,844 470,829 342,815 208,766 208,545 208,483 230,431 267,391 261,377 241,318 272,239 272,239 321,224 431,298 477,285 526,279 575,279 624,279 673,285 719,298 829,224 877,239 877,239 908,318 889,377 883,391 920,431 942,483 942,545 942,766 807,815 679,829 700,847 718,882 718,935 718,1012 718,1074 718,1093 718,1108 728,1126 757,1121 985,1044 1150,829 1150,575 1150,258 893,0 575,0 Z"/>
       </g>
      </g>
      <g class="com.sun.star.drawing.ClosedBezierShape">
       <g id="id5">
        <rect class="BoundingBox" stroke="none" fill="none" x="10238" y="2061" width="4263" height="4158"/>
        <path fill="rgb(27,24,23)" stroke="none" d="M 12369,2061 C 11193,2061 10238,3016 10238,4192 10238,5133 10849,5932 11696,6214 11802,6233 11841,6167 11841,6111 11841,6060 11839,5893 11838,5715 11246,5843 11121,5463 11121,5463 11024,5217 10884,5151 10884,5151 10691,5019 10899,5022 10899,5022 11113,5037 11225,5242 11225,5242 11415,5567 11724,5473 11845,5419 11864,5281 11920,5187 11980,5134 11507,5080 11010,4897 11010,4081 11010,3848 11093,3658 11229,3509 11207,3455 11134,3239 11250,2945 11250,2945 11429,2888 11836,3164 12006,3116 12188,3093 12369,3092 12550,3093 12733,3116 12903,3164 13309,2888 13488,2945 13488,2945 13604,3239 13531,3455 13509,3509 13646,3658 13728,3848 13728,4081 13728,4899 13230,5079 12756,5132 12832,5198 12900,5328 12900,5527 12900,5812 12898,6041 12898,6111 12898,6168 12936,6235 13044,6213 13890,5931 14500,5133 14500,4192 14500,3016 13546,2061 12369,2061 Z"/>
       </g>
      </g>
      <g class="com.sun.star.drawing.ClosedBezierShape">
       <g id="id6">
        <rect class="BoundingBox" stroke="none" fill="none" x="10988" y="5083" width="62" height="49"/>
        <path fill="rgb(27,24,23)" stroke="none" d="M 11046,5120 C 11041,5131 11024,5134 11009,5126 10994,5119 10984,5105 10989,5094 10995,5083 11011,5079 11027,5087 11042,5094 11052,5109 11046,5120 Z"/>
       </g>
      </g>
      <g class="com.sun.star.drawing.ClosedBezierShape">
       <g id="id7">
        <rect class="BoundingBox" stroke="none" fill="none" x="11075" y="5157" width="65" height="66"/>
        <path fill="rgb(27,24,23)" stroke="none" d="M 11132,5217 C 11121,5226 11101,5222 11088,5206 11074,5191 11071,5171 11081,5162 11092,5152 11111,5157 11125,5172 11140,5187 11143,5206 11132,5217 Z"/>
       </g>
      </g>
      <g class="com.sun.star.drawing.ClosedBezierShape">
       <g id="id8">
        <rect class="BoundingBox" stroke="none" fill="none" x="11158" y="5266" width="70" height="79"/>
        <path fill="rgb(27,24,23)" stroke="none" d="M 11216,5340 C 11203,5350 11182,5341 11168,5322 11154,5303 11154,5279 11169,5270 11182,5261 11203,5269 11216,5289 11230,5308 11230,5331 11216,5340 Z"/>
       </g>
      </g>
      <g class="com.sun.star.drawing.ClosedBezierShape">
       <g id="id9">
        <rect class="BoundingBox" stroke="none" fill="none" x="11257" y="5387" width="83" height="80"/>
        <path fill="rgb(27,24,23)" stroke="none" d="M 11330,5458 C 11318,5471 11294,5467 11275,5450 11256,5433 11251,5407 11263,5394 11275,5382 11300,5385 11318,5403 11338,5420 11344,5445 11330,5458 Z"/>
       </g>
      </g>
      <g class="com.sun.star.drawing.ClosedBezierShape">
       <g id="id10">
        <rect class="BoundingBox" stroke="none" fill="none" x="11399" y="5479" width="93" height="69"/>
        <path fill="rgb(27,24,23)" stroke="none" d="M 11490,5527 C 11485,5544 11460,5551 11436,5544 11412,5537 11396,5517 11401,5499 11406,5483 11430,5475 11454,5482 11479,5489 11495,5509 11490,5527 Z"/>
       </g>
      </g>
      <g class="com.sun.star.drawing.ClosedBezierShape">
       <g id="id11">
        <rect class="BoundingBox" stroke="none" fill="none" x="11572" y="5508" width="94" height="66"/>
        <path fill="rgb(27,24,23)" stroke="none" d="M 11664,5540 C 11665,5557 11644,5572 11619,5572 11593,5573 11572,5558 11572,5541 11572,5523 11592,5508 11618,5508 11643,5507 11664,5522 11664,5540 Z"/>
       </g>
      </g>
      <g class="com.sun.star.drawing.ClosedBezierShape">
       <g id="id12">
        <rect class="BoundingBox" stroke="none" fill="none" x="11734" y="5487" width="94" height="67"/>
        <path fill="rgb(27,24,23)" stroke="none" d="M 11826,5511 C 11829,5528 11812,5547 11787,5551 11761,5556 11738,5545 11735,5527 11732,5510 11750,5492 11774,5488 11801,5483 11823,5494 11826,5511 Z"/>
       </g>
      </g>
      <g class="com.sun.star.drawing.LineShape">
       <g id="id13">
        <rect class="BoundingBox" stroke="none" fill="none" x="7915" y="1834" width="37" height="54"/>
        <path fill="none" stroke="rgb(58,127,195)" stroke-width="35" stroke-linejoin="miter" stroke-linecap="round" d="M 7933,1852 L 7933,1869"/>
       </g>
      </g>
      <g class="com.sun.star.drawing.LineShape">
       <g id="id14">
        <rect class="BoundingBox" stroke="none" fill="none" x="7915" y="1922" width="37" height="4764"/>
        <path fill="none" stroke="rgb(58,127,195)" stroke-width="35" stroke-linejoin="miter" stroke-linecap="round" d="M 7933,1940 L 7933,1975"/>
        <path fill="none" stroke="rgb(58,127,195)" stroke-width="35" stroke-linejoin="miter" stroke-linecap="round" d="M 7933,2045 L 7933,2080"/>
        <path fill="none" stroke="rgb(58,127,195)" stroke-width="35" stroke-linejoin="miter" stroke-linecap="round" d="M 7933,2150 L 7933,2185"/>
        <path fill="none" stroke="rgb(58,127,195)" stroke-width="35" stroke-linejoin="miter" stroke-linecap="round" d="M 7933,2255 L 7933,2290"/>
        <path fill="none" stroke="rgb(58,127,195)" stroke-width="35" stroke-linejoin="miter" stroke-linecap="round" d="M 7933,2360 L 7933,2395"/>
        <path fill="none" stroke="rgb(58,127,195)" stroke-width="35" stroke-linejoin="miter" stroke-linecap="round" d="M 7933,2465 L 7933,2500"/>
        <path fill="none" stroke="rgb(58,127,195)" stroke-width="35" stroke-linejoin="miter" stroke-linecap="round" d="M 7933,2570 L 7933,2605"/>
        <path fill="none" stroke="rgb(58,127,195)" stroke-width="35" stroke-linejoin="miter" stroke-linecap="round" d="M 7933,2675 L 7933,2710"/>
        <path fill="none" stroke="rgb(58,127,195)" stroke-width="35" stroke-linejoin="miter" stroke-linecap="round" d="M 7933,2780 L 7933,2815"/>
        <path fill="none" stroke="rgb(58,127,195)" stroke-width="35" stroke-linejoin="miter" stroke-linecap="round" d="M 7933,2885 L 7933,2920"/>
        <path fill="none" stroke="rgb(58,127,195)" stroke-width="35" stroke-linejoin="miter" stroke-linecap="round" d="M 7933,2990 L 7933,3025"/>
        <path fill="none" stroke="rgb(58,127,195)" stroke-width="35" stroke-linejoin="miter" stroke-linecap="round" d="M 7933,3095 L 7933,3130"/>
        <path fill="none" stroke="rgb(58,127,195)" stroke-width="35" stroke-linejoin="miter" stroke-linecap="round" d="M 7933,3200 L 7933,3235"/>
        <path fill="none" stroke="rgb(58,127,195)" stroke-width="35" stroke-linejoin="miter" stroke-linecap="round" d="M 7933,3305 L 7933,3340"/>
        <path fill="none" stroke="rgb(58,127,195)" stroke-width="35" stroke-linejoin="miter" stroke-linecap="round" d="M 7933,3410 L 7933,3445"/>
        <path fill="none" stroke="rgb(58,127,195)" stroke-width="35" stroke-linejoin="miter" stroke-linecap="round" d="M 7933,3515 L 7933,3550"/>
        <path fill="none" stroke="rgb(58,127,195)" stroke-width="35" stroke-linejoin="miter" stroke-linecap="round" d="M 7933,3620 L 7933,3655"/>
        <path fill="none" stroke="rgb(58,127,195)" stroke-width="35" stroke-linejoin="miter" stroke-linecap="round" d="M 7933,3725 L 7933,3760"/>
        <path fill="none" stroke="rgb(58,127,195)" stroke-width="35" stroke-linejoin="miter" stroke-linecap="round" d="M 7933,3830 L 7933,3865"/>
        <path fill="none" stroke="rgb(58,127,195)" stroke-width="35" stroke-linejoin="miter" stroke-linecap="round" d="M 7933,3935 L 7933,3970"/>
        <path fill="none" stroke="rgb(58,127,195)" stroke-width="35" stroke-linejoin="miter" stroke-linecap="round" d="M 7933,4040 L 7933,4075"/>
        <path fill="none" stroke="rgb(58,127,195)" stroke-width="35" stroke-linejoin="miter" stroke-linecap="round" d="M 7933,4145 L 7933,4180"/>
        <path fill="none" stroke="rgb(58,127,195)" stroke-width="35" stroke-linejoin="miter" stroke-linecap="round" d="M 7933,4250 L 7933,4285"/>
        <path fill="none" stroke="rgb(58,127,195)" stroke-width="35" stroke-linejoin="miter" stroke-linecap="round" d="M 7933,4355 L 7933,4390"/>
        <path fill="none" stroke="rgb(58,127,195)" stroke-width="35" stroke-linejoin="miter" stroke-linecap="round" d="M 7933,4460 L 7933,4495"/>
        <path fill="none" stroke="rgb(58,127,195)" stroke-width="35" stroke-linejoin="miter" stroke-linecap="round" d="M 7933,4565 L 7933,4600"/>
        <path fill="none" stroke="rgb(58,127,195)" stroke-width="35" stroke-linejoin="miter" stroke-linecap="round" d="M 7933,4670 L 7933,4705"/>
        <path fill="none" stroke="rgb(58,127,195)" stroke-width="35" stroke-linejoin="miter" stroke-linecap="round" d="M 7933,4775 L 7933,4810"/>
        <path fill="none" stroke="rgb(58,127,195)" stroke-width="35" stroke-linejoin="miter" stroke-linecap="round" d="M 7933,4880 L 7933,4915"/>
        <path fill="none" stroke="rgb(58,127,195)" stroke-width="35" stroke-linejoin="miter" stroke-linecap="round" d="M 7933,4985 L 7933,5020"/>
        <path fill="none" stroke="rgb(58,127,195)" stroke-width="35" stroke-linejoin="miter" stroke-linecap="round" d="M 7933,5090 L 7933,5125"/>
        <path fill="none" stroke="rgb(58,127,195)" stroke-width="35" stroke-linejoin="miter" stroke-linecap="round" d="M 7933,5195 L 7933,5230"/>
        <path fill="none" stroke="rgb(58,127,195)" stroke-width="35" stroke-linejoin="miter" stroke-linecap="round" d="M 7933,5300 L 7933,5335"/>
        <path fill="none" stroke="rgb(58,127,195)" stroke-width="35" stroke-linejoin="miter" stroke-linecap="round" d="M 7933,5405 L 7933,5440"/>
        <path fill="none" stroke="rgb(58,127,195)" stroke-width="35" stroke-linejoin="miter" stroke-linecap="round" d="M 7933,5510 L 7933,5545"/>
        <path fill="none" stroke="rgb(58,127,195)" stroke-width="35" stroke-linejoin="miter" stroke-linecap="round" d="M 7933,5615 L 7933,5650"/>
        <path fill="none" stroke="rgb(58,127,195)" stroke-width="35" stroke-linejoin="miter" stroke-linecap="round" d="M 7933,5720 L 7933,5755"/>
        <path fill="none" stroke="rgb(58,127,195)" stroke-width="35" stroke-linejoin="miter" stroke-linecap="round" d="M 7933,5825 L 7933,5860"/>
        <path fill="none" stroke="rgb(58,127,195)" stroke-width="35" stroke-linejoin="miter" stroke-linecap="round" d="M 7933,5930 L 7933,5965"/>
        <path fill="none" stroke="rgb(58,127,195)" stroke-width="35" stroke-linejoin="miter" stroke-linecap="round" d="M 7933,6035 L 7933,6070"/>
        <path fill="none" stroke="rgb(58,127,195)" stroke-width="35" stroke-linejoin="miter" stroke-linecap="round" d="M 7933,6140 L 7933,6175"/>
        <path fill="none" stroke="rgb(58,127,195)" stroke-width="35" stroke-linejoin="miter" stroke-linecap="round" d="M 7933,6245 L 7933,6280"/>
        <path fill="none" stroke="rgb(58,127,195)" stroke-width="35" stroke-linejoin="miter" stroke-linecap="round" d="M 7933,6350 L 7933,6385"/>
        <path fill="none" stroke="rgb(58,127,195)" stroke-width="35" stroke-linejoin="miter" stroke-linecap="round" d="M 7933,6455 L 7933,6490"/>
        <path fill="none" stroke="rgb(58,127,195)" stroke-width="35" stroke-linejoin="miter" stroke-linecap="round" d="M 7933,6560 L 7933,6595"/>
        <path fill="none" stroke="rgb(58,127,195)" stroke-width="35" stroke-linejoin="miter" stroke-linecap="round" d="M 7933,6665 L 7933,6667"/>
       </g>
      </g>
      <g class="com.sun.star.drawing.LineShape">
       <g id="id15">
        <rect class="BoundingBox" stroke="none" fill="none" x="7915" y="6684" width="37" height="55"/>
        <path fill="none" stroke="rgb(58,127,195)" stroke-width="35" stroke-linejoin="miter" stroke-linecap="round" d="M 7933,6702 L 7933,6720"/>
       </g>
      </g>
      <g class="com.sun.star.drawing.ClosedBezierShape">
       <g id="id16">
        <rect class="BoundingBox" stroke="none" fill="none" x="4532" y="7166" width="245" height="318"/>
        <path fill="rgb(23,111,192)" stroke="none" d="M 4701,7214 C 4688,7204 4671,7199 4650,7199 4641,7199 4633,7200 4625,7202 4617,7204 4609,7206 4603,7210 4597,7214 4592,7220 4588,7226 4584,7233 4582,7241 4582,7251 4582,7260 4585,7268 4590,7274 4596,7280 4603,7284 4612,7288 4621,7292 4632,7295 4643,7297 4655,7299 4667,7302 4679,7305 4691,7308 4703,7311 4714,7315 4727,7319 4737,7324 4746,7330 4755,7337 4763,7345 4768,7355 4774,7365 4776,7377 4776,7392 4776,7408 4773,7422 4766,7434 4758,7446 4749,7455 4738,7462 4727,7469 4713,7475 4699,7478 4685,7481 4671,7483 4657,7483 4640,7483 4624,7481 4609,7476 4594,7472 4581,7466 4570,7457 4558,7449 4549,7438 4542,7423 4536,7410 4532,7394 4532,7376 L 4571,7376 C 4571,7388 4573,7399 4578,7408 4583,7418 4589,7425 4597,7432 4606,7438 4615,7442 4626,7445 4636,7448 4647,7449 4659,7449 4668,7449 4677,7449 4686,7447 4695,7445 4703,7442 4711,7438 4718,7434 4725,7428 4729,7420 4734,7413 4736,7404 4736,7393 4736,7383 4734,7374 4728,7368 4722,7361 4714,7356 4705,7352 4696,7348 4685,7345 4674,7342 4662,7340 4651,7337 4639,7334 4627,7332 4615,7328 4603,7325 4592,7321 4581,7317 4572,7311 4563,7305 4556,7298 4550,7289 4545,7279 4542,7268 4542,7254 4542,7239 4545,7226 4551,7214 4557,7203 4566,7194 4576,7187 4586,7180 4598,7174 4611,7171 4624,7167 4638,7166 4651,7166 4667,7166 4681,7167 4695,7171 4708,7175 4721,7181 4731,7188 4741,7196 4748,7206 4754,7218 4760,7230 4763,7245 4764,7261 L 4726,7261 C 4723,7240 4715,7224 4701,7214 Z"/>
       </g>
      </g>
      <g class="com.sun.star.drawing.ClosedBezierShape">
       <g id="id17">
        <rect class="BoundingBox" stroke="none" fill="none" x="4818" y="7251" width="309" height="226"/>
        <path fill="rgb(23,111,192)" stroke="none" d="M 4852,7256 L 4852,7288 4853,7288 C 4869,7263 4893,7251 4924,7251 4937,7251 4949,7254 4960,7260 4971,7265 4979,7275 4984,7288 4991,7276 5001,7267 5013,7261 5025,7254 5038,7251 5053,7251 5064,7251 5074,7252 5083,7255 5092,7257 5100,7261 5106,7266 5112,7271 5117,7278 5121,7286 5124,7294 5126,7303 5126,7315 L 5126,7476 5090,7476 5090,7332 C 5090,7325 5090,7318 5088,7312 5087,7307 5085,7301 5082,7297 5079,7293 5075,7289 5069,7287 5064,7284 5057,7283 5047,7283 5029,7283 5015,7288 5005,7298 4995,7308 4990,7322 4990,7339 L 4990,7476 4954,7476 4954,7332 C 4954,7324 4953,7318 4952,7312 4951,7306 4948,7301 4945,7297 4942,7292 4938,7289 4933,7286 4928,7284 4921,7283 4913,7283 4902,7283 4893,7285 4886,7289 4878,7293 4872,7298 4868,7304 4863,7310 4859,7316 4857,7323 4855,7329 4854,7334 4854,7339 L 4854,7476 4818,7476 4818,7256 4852,7256 Z"/>
       </g>
      </g>
      <g class="com.sun.star.drawing.ClosedBezierShape">
       <g id="id18">
        <rect class="BoundingBox" stroke="none" fill="none" x="5167" y="7251" width="208" height="231"/>
        <path fill="rgb(23,111,192)" stroke="none" d="M 5298,7369 C 5291,7371 5283,7372 5275,7373 5267,7374 5259,7375 5251,7377 5242,7378 5235,7380 5229,7383 5221,7386 5216,7390 5212,7395 5208,7400 5206,7407 5206,7417 5206,7423 5207,7428 5209,7432 5212,7436 5215,7440 5218,7442 5222,7445 5227,7447 5233,7448 5238,7449 5244,7449 5249,7449 5261,7449 5271,7448 5279,7444 5288,7441 5295,7437 5300,7432 5305,7427 5309,7422 5312,7416 5315,7409 5316,7404 5316,7399 L 5316,7362 C 5311,7365 5305,7368 5298,7369 Z M 5348,7481 C 5339,7481 5332,7478 5326,7473 5321,7468 5318,7459 5318,7447 5308,7459 5297,7468 5283,7473 5270,7478 5256,7481 5241,7481 5231,7481 5221,7480 5212,7478 5203,7475 5195,7472 5189,7467 5182,7462 5177,7456 5173,7448 5169,7440 5167,7431 5167,7420 5167,7406 5170,7396 5174,7388 5178,7380 5184,7374 5191,7369 5197,7364 5205,7360 5214,7358 5223,7355 5233,7353 5243,7351 5252,7349 5262,7348 5271,7347 5280,7346 5287,7345 5294,7343 5301,7341 5306,7338 5310,7335 5314,7331 5316,7326 5316,7319 5316,7311 5315,7305 5312,7300 5309,7295 5305,7292 5300,7289 5296,7287 5290,7285 5285,7284 5279,7283 5273,7283 5268,7283 5252,7283 5240,7286 5229,7292 5218,7297 5213,7308 5212,7324 L 5176,7324 C 5176,7311 5179,7299 5184,7290 5189,7281 5196,7273 5205,7267 5213,7262 5223,7257 5235,7255 5246,7252 5258,7251 5270,7251 5280,7251 5289,7252 5299,7253 5309,7255 5318,7257 5326,7262 5333,7266 5340,7272 5345,7280 5349,7288 5352,7298 5352,7311 L 5352,7425 C 5352,7433 5352,7439 5353,7443 5354,7447 5358,7449 5363,7449 5366,7449 5370,7449 5374,7447 L 5374,7475 C 5368,7479 5359,7481 5348,7481 Z"/>
       </g>
      </g>
      <g class="com.sun.star.drawing.PolyPolygonShape">
       <g id="id19">
        <rect class="BoundingBox" stroke="none" fill="none" x="5409" y="7173" width="38" height="304"/>
        <path fill="rgb(23,111,192)" stroke="none" d="M 5446,7476 L 5409,7476 5409,7173 5446,7173 5446,7476 Z"/>
       </g>
      </g>
      <g class="com.sun.star.drawing.PolyPolygonShape">
       <g id="id20">
        <rect class="BoundingBox" stroke="none" fill="none" x="5503" y="7173" width="38" height="304"/>
        <path fill="rgb(23,111,192)" stroke="none" d="M 5540,7476 L 5503,7476 5503,7173 5540,7173 5540,7476 Z"/>
       </g>
      </g>
      <g class="com.sun.star.drawing.ClosedBezierShape">
       <g id="id21">
        <rect class="BoundingBox" stroke="none" fill="none" x="3593" y="7677" width="122" height="308"/>
        <path fill="rgb(23,111,192)" stroke="none" d="M 3593,7797 L 3593,7764 3630,7764 3630,7732 C 3630,7714 3635,7700 3645,7691 3655,7682 3671,7677 3691,7677 3694,7677 3698,7678 3703,7678 3707,7679 3711,7680 3714,7681 L 3714,7712 C 3711,7711 3708,7710 3704,7710 3701,7709 3697,7709 3694,7709 3685,7709 3678,7711 3674,7714 3669,7718 3666,7724 3666,7734 L 3666,7764 3709,7764 3709,7797 3666,7797 3666,7984 3630,7984 3630,7797 3593,7797 Z"/>
       </g>
      </g>
      <g class="com.sun.star.drawing.ClosedBezierShape">
       <g id="id22">
        <rect class="BoundingBox" stroke="none" fill="none" x="3728" y="7759" width="215" height="231"/>
        <path fill="rgb(23,111,192)" stroke="none" d="M 3772,7910 C 3775,7920 3780,7929 3786,7936 3792,7943 3800,7948 3808,7952 3816,7955 3825,7957 3834,7957 3844,7957 3853,7955 3861,7952 3869,7948 3876,7943 3883,7936 3889,7929 3894,7920 3897,7910 3901,7900 3903,7888 3903,7875 3903,7861 3901,7849 3897,7838 3894,7828 3889,7819 3883,7812 3876,7805 3869,7800 3861,7796 3853,7793 3844,7791 3834,7791 3825,7791 3816,7793 3808,7796 3800,7800 3792,7805 3786,7812 3780,7819 3775,7828 3772,7838 3768,7849 3766,7861 3766,7875 3766,7888 3768,7900 3772,7910 Z M 3735,7829 C 3739,7815 3746,7803 3755,7792 3764,7782 3775,7774 3789,7768 3802,7762 3817,7759 3834,7759 3852,7759 3867,7762 3880,7768 3893,7774 3905,7782 3914,7792 3924,7803 3930,7815 3935,7829 3939,7843 3942,7858 3942,7875 3942,7891 3939,7906 3935,7920 3930,7934 3924,7946 3914,7956 3905,7966 3893,7974 3880,7980 3867,7986 3852,7989 3834,7989 3817,7989 3802,7986 3789,7980 3775,7974 3764,7966 3755,7956 3746,7946 3739,7934 3735,7920 3730,7906 3728,7891 3728,7875 3728,7858 3730,7843 3735,7829 Z"/>
       </g>
      </g>
      <g class="com.sun.star.drawing.ClosedBezierShape">
       <g id="id23">
        <rect class="BoundingBox" stroke="none" fill="none" x="3981" y="7759" width="118" height="226"/>
        <path fill="rgb(23,111,192)" stroke="none" d="M 4016,7764 L 4016,7810 C 4025,7793 4036,7779 4049,7771 4061,7762 4077,7759 4098,7759 L 4098,7797 C 4082,7797 4070,7799 4060,7803 4050,7807 4042,7813 4035,7820 4029,7828 4025,7837 4022,7848 4019,7859 4018,7872 4018,7886 L 4018,7984 3982,7984 3982,7764 4016,7764 Z"/>
       </g>
      </g>
      <g class="com.sun.star.drawing.ClosedBezierShape">
       <g id="id24">
        <rect class="BoundingBox" stroke="none" fill="none" x="4251" y="7683" width="116" height="302"/>
        <path fill="rgb(23,111,192)" stroke="none" d="M 4329,7984 L 4329,7768 4251,7768 4251,7739 C 4262,7739 4271,7738 4281,7737 4291,7735 4299,7732 4307,7728 4315,7724 4321,7718 4327,7711 4332,7703 4336,7694 4338,7683 L 4366,7683 4366,7984 4329,7984 Z"/>
       </g>
      </g>
      <g class="com.sun.star.drawing.ClosedBezierShape">
       <g id="id25">
        <rect class="BoundingBox" stroke="none" fill="none" x="4466" y="7683" width="206" height="307"/>
        <path fill="rgb(23,111,192)" stroke="none" d="M 4544,7828 C 4537,7832 4530,7836 4525,7842 4519,7848 4515,7856 4513,7864 4510,7872 4509,7881 4509,7890 4509,7900 4510,7908 4513,7917 4516,7925 4520,7932 4525,7938 4530,7944 4537,7949 4545,7952 4552,7956 4561,7957 4572,7957 4582,7957 4591,7956 4598,7952 4606,7949 4612,7944 4617,7937 4622,7931 4626,7924 4629,7916 4631,7908 4633,7900 4633,7891 4633,7882 4631,7873 4629,7864 4627,7856 4623,7849 4618,7843 4613,7837 4606,7832 4599,7828 4591,7825 4582,7823 4572,7823 4561,7823 4552,7824 4544,7828 Z M 4611,7727 C 4602,7719 4590,7715 4576,7715 4560,7715 4547,7718 4538,7726 4529,7733 4521,7743 4516,7755 4511,7767 4507,7779 4505,7792 4503,7805 4502,7818 4502,7830 L 4503,7830 C 4511,7817 4522,7807 4534,7800 4547,7794 4561,7791 4579,7791 4593,7791 4606,7793 4617,7798 4629,7803 4639,7810 4646,7819 4654,7828 4660,7838 4664,7850 4669,7862 4671,7875 4671,7888 4671,7899 4669,7911 4666,7923 4662,7934 4657,7945 4649,7955 4641,7965 4631,7973 4618,7979 4605,7986 4589,7989 4570,7989 4547,7989 4529,7984 4516,7975 4502,7966 4492,7955 4484,7940 4477,7926 4472,7911 4470,7894 4467,7877 4466,7861 4466,7845 4466,7824 4468,7804 4471,7785 4475,7766 4481,7747 4489,7732 4498,7717 4509,7705 4523,7696 4537,7687 4555,7683 4577,7683 4602,7683 4622,7689 4637,7703 4651,7716 4660,7735 4662,7760 L 4626,7760 C 4624,7746 4619,7735 4611,7727 Z"/>
       </g>
      </g>
      <g class="com.sun.star.drawing.ClosedBezierShape">
       <g id="id26">
        <rect class="BoundingBox" stroke="none" fill="none" x="4714" y="7759" width="209" height="309"/>
        <path fill="rgb(23,111,192)" stroke="none" d="M 4880,7843 C 4877,7833 4873,7823 4868,7816 4861,7808 4854,7802 4846,7798 4837,7793 4827,7791 4815,7791 4803,7791 4793,7793 4784,7798 4776,7803 4769,7809 4764,7817 4758,7825 4754,7834 4752,7844 4750,7854 4748,7864 4748,7874 4748,7885 4750,7895 4752,7905 4755,7916 4759,7924 4764,7932 4770,7940 4777,7946 4786,7950 4794,7955 4805,7957 4817,7957 4830,7957 4840,7955 4848,7950 4857,7945 4863,7939 4870,7931 4875,7923 4878,7914 4881,7904 4883,7894 4884,7883 4884,7873 4884,7863 4883,7853 4880,7843 Z M 4750,7764 L 4750,7794 C 4756,7782 4766,7773 4778,7767 4791,7762 4805,7759 4820,7759 4837,7759 4852,7762 4866,7768 4878,7775 4889,7783 4897,7794 4905,7804 4911,7816 4916,7831 4920,7845 4922,7860 4922,7875 4922,7891 4920,7905 4916,7919 4912,7933 4906,7945 4897,7955 4889,7966 4879,7974 4866,7980 4852,7986 4838,7989 4821,7989 4816,7989 4810,7988 4803,7987 4797,7986 4790,7984 4784,7981 4777,7979 4771,7975 4765,7971 4759,7967 4754,7961 4750,7955 L 4750,8067 4714,8067 4714,7764 4750,7764 Z"/>
       </g>
      </g>
      <g class="com.sun.star.drawing.PolyPolygonShape">
       <g id="id27">
        <rect class="BoundingBox" stroke="none" fill="none" x="4940" y="7764" width="214" height="221"/>
        <path fill="rgb(23,111,192)" stroke="none" d="M 4946,7764 L 4993,7764 5046,7841 5100,7764 5143,7764 5068,7865 5153,7984 5107,7984 5046,7892 4985,7984 4940,7984 5023,7868 4946,7764 Z"/>
       </g>
      </g>
      <g class="com.sun.star.drawing.PolyPolygonShape">
       <g id="id28">
        <rect class="BoundingBox" stroke="none" fill="none" x="5177" y="7848" width="125" height="36"/>
        <path fill="rgb(23,111,192)" stroke="none" d="M 5300,7883 L 5177,7883 5177,7848 5300,7848 5300,7883 Z"/>
       </g>
      </g>
      <g class="com.sun.star.drawing.ClosedBezierShape">
       <g id="id29">
        <rect class="BoundingBox" stroke="none" fill="none" x="5357" y="7683" width="116" height="302"/>
        <path fill="rgb(23,111,192)" stroke="none" d="M 5436,7984 L 5436,7768 5357,7768 5357,7739 C 5367,7739 5378,7738 5388,7737 5397,7735 5406,7732 5414,7728 5422,7724 5428,7718 5433,7711 5439,7703 5442,7694 5444,7683 L 5472,7683 5472,7984 5436,7984 Z"/>
       </g>
      </g>
      <g class="com.sun.star.drawing.ClosedBezierShape">
       <g id="id30">
        <rect class="BoundingBox" stroke="none" fill="none" x="5566" y="7683" width="202" height="302"/>
        <path fill="rgb(23,111,192)" stroke="none" d="M 5579,7747 C 5583,7734 5589,7723 5597,7713 5606,7704 5616,7696 5628,7691 5641,7686 5656,7683 5672,7683 5685,7683 5697,7685 5708,7689 5720,7692 5730,7698 5738,7705 5747,7712 5753,7721 5758,7732 5763,7743 5766,7755 5766,7769 5766,7783 5764,7794 5760,7804 5756,7815 5750,7824 5743,7832 5737,7840 5729,7847 5720,7853 5711,7860 5702,7866 5693,7872 5684,7878 5674,7883 5665,7889 5656,7894 5647,7900 5638,7906 5631,7913 5624,7919 5619,7927 5613,7934 5609,7942 5608,7952 L 5763,7952 5763,7984 5566,7984 C 5567,7966 5570,7951 5575,7937 5580,7925 5587,7914 5594,7905 5602,7895 5610,7887 5620,7880 5630,7873 5640,7866 5651,7860 5664,7852 5675,7845 5684,7838 5694,7832 5702,7825 5708,7818 5715,7812 5720,7804 5723,7796 5726,7788 5728,7779 5728,7769 5728,7761 5726,7753 5723,7747 5720,7740 5716,7734 5711,7729 5705,7725 5699,7721 5692,7718 5685,7716 5678,7715 5670,7715 5659,7715 5650,7717 5642,7721 5634,7726 5628,7731 5623,7738 5619,7745 5615,7753 5613,7762 5611,7771 5610,7780 5610,7789 L 5574,7789 C 5573,7774 5575,7760 5579,7747 Z"/>
       </g>
      </g>
      <g class="com.sun.star.drawing.ClosedBezierShape">
       <g id="id31">
        <rect class="BoundingBox" stroke="none" fill="none" x="5809" y="7683" width="202" height="307"/>
        <path fill="rgb(23,111,192)" stroke="none" d="M 5848,7874 C 5849,7888 5851,7901 5855,7914 5859,7926 5865,7936 5874,7945 5883,7953 5894,7957 5910,7957 5925,7957 5937,7953 5945,7945 5954,7936 5960,7926 5964,7914 5967,7901 5970,7888 5970,7874 5971,7860 5972,7848 5972,7836 5972,7829 5971,7821 5971,7812 5971,7803 5970,7794 5969,7785 5968,7776 5966,7768 5964,7759 5961,7750 5958,7742 5953,7736 5948,7730 5943,7724 5936,7721 5928,7717 5920,7715 5910,7715 5900,7715 5891,7717 5884,7721 5877,7724 5870,7730 5865,7736 5861,7742 5857,7750 5855,7759 5852,7768 5851,7776 5849,7785 5848,7794 5847,7803 5847,7812 5847,7821 5847,7829 5847,7836 5847,7848 5847,7860 5848,7874 Z M 5810,7802 C 5810,7791 5812,7779 5814,7768 5816,7756 5819,7745 5824,7735 5828,7724 5834,7715 5841,7708 5848,7700 5858,7694 5869,7690 5881,7685 5894,7683 5910,7683 5925,7683 5939,7685 5950,7690 5961,7694 5970,7700 5977,7708 5985,7715 5991,7724 5995,7735 5999,7745 6002,7756 6005,7768 6007,7779 6008,7791 6009,7802 6009,7814 6010,7826 6010,7837 6010,7848 6009,7859 6009,7871 6008,7883 6007,7894 6005,7906 6002,7917 5999,7928 5995,7938 5991,7948 5985,7957 5977,7964 5970,7972 5961,7978 5950,7982 5939,7987 5926,7989 5910,7989 5894,7989 5881,7987 5869,7982 5858,7978 5848,7972 5841,7964 5834,7957 5828,7948 5824,7938 5819,7928 5816,7917 5814,7906 5812,7894 5810,7883 5810,7871 5809,7859 5809,7848 5809,7837 5809,7826 5809,7814 5810,7802 Z"/>
       </g>
      </g>
      <g class="com.sun.star.drawing.ClosedBezierShape">
       <g id="id32">
        <rect class="BoundingBox" stroke="none" fill="none" x="6055" y="7759" width="209" height="309"/>
        <path fill="rgb(23,111,192)" stroke="none" d="M 6221,7843 C 6218,7833 6214,7823 6209,7816 6203,7808 6196,7802 6188,7798 6179,7793 6169,7791 6157,7791 6145,7791 6135,7793 6126,7798 6118,7803 6111,7809 6105,7817 6099,7825 6095,7834 6093,7844 6091,7854 6089,7864 6089,7874 6089,7885 6091,7895 6093,7905 6096,7916 6100,7924 6105,7932 6112,7940 6119,7946 6128,7950 6136,7955 6147,7957 6159,7957 6172,7957 6182,7955 6191,7950 6199,7945 6206,7939 6211,7931 6216,7923 6219,7914 6222,7904 6224,7894 6225,7883 6225,7873 6225,7863 6224,7853 6221,7843 Z M 6091,7764 L 6091,7794 6092,7794 C 6098,7782 6108,7773 6121,7767 6133,7762 6147,7759 6162,7759 6179,7759 6194,7762 6207,7768 6219,7775 6230,7783 6238,7794 6246,7804 6253,7816 6257,7831 6261,7845 6263,7860 6263,7875 6263,7891 6261,7905 6257,7919 6253,7933 6247,7945 6238,7955 6230,7966 6220,7974 6207,7980 6195,7986 6180,7989 6163,7989 6158,7989 6152,7988 6145,7987 6139,7986 6132,7984 6126,7981 6119,7979 6113,7975 6106,7971 6100,7967 6096,7961 6092,7955 L 6091,7955 6091,8067 6055,8067 6055,7764 6091,7764 Z"/>
       </g>
      </g>
      <g class="com.sun.star.drawing.PolyPolygonShape">
       <g id="id33">
        <rect class="BoundingBox" stroke="none" fill="none" x="6281" y="7764" width="214" height="221"/>
        <path fill="rgb(23,111,192)" stroke="none" d="M 6287,7764 L 6333,7764 6386,7841 6441,7764 6485,7764 6408,7865 6494,7984 6448,7984 6386,7892 6325,7984 6281,7984 6363,7868 6287,7764 Z"/>
       </g>
      </g>
      <g class="com.sun.star.drawing.PolyPolygonShape">
       <g id="id34">
        <rect class="BoundingBox" stroke="none" fill="none" x="11800" y="7173" width="202" height="304"/>
        <path fill="rgb(23,111,192)" stroke="none" d="M 11840,7173 L 11840,7442 12001,7442 12001,7476 11800,7476 11800,7173 11840,7173 Z"/>
       </g>
      </g>
      <g class="com.sun.star.drawing.ClosedBezierShape">
       <g id="id35">
        <rect class="BoundingBox" stroke="none" fill="none" x="12017" y="7251" width="208" height="231"/>
        <path fill="rgb(23,111,192)" stroke="none" d="M 12147,7369 C 12139,7371 12132,7372 12124,7373 12116,7374 12108,7375 12099,7377 12091,7378 12084,7380 12077,7383 12071,7385 12066,7390 12062,7395 12057,7400 12055,7407 12055,7417 12055,7423 12057,7428 12059,7432 12061,7436 12064,7440 12068,7442 12072,7445 12077,7447 12082,7448 12087,7449 12092,7449 12098,7449 12110,7449 12120,7448 12128,7444 12137,7441 12144,7437 12149,7432 12154,7427 12158,7422 12161,7416 12163,7409 12165,7404 12165,7399 L 12165,7362 C 12160,7365 12154,7368 12147,7369 Z M 12197,7481 C 12188,7481 12180,7478 12175,7473 12169,7468 12167,7459 12167,7447 12157,7459 12145,7468 12132,7473 12119,7478 12105,7481 12090,7481 12080,7481 12070,7480 12062,7477 12053,7475 12045,7472 12039,7467 12032,7462 12027,7456 12023,7448 12019,7440 12017,7431 12017,7420 12017,7406 12019,7396 12024,7388 12028,7380 12033,7374 12040,7369 12047,7364 12055,7360 12064,7358 12073,7355 12082,7353 12091,7351 12101,7349 12111,7348 12120,7347 12128,7346 12136,7345 12143,7343 12150,7341 12155,7338 12159,7335 12163,7331 12165,7326 12165,7319 12165,7311 12164,7305 12161,7300 12158,7295 12154,7292 12149,7289 12144,7287 12139,7285 12133,7284 12128,7283 12122,7283 12116,7283 12101,7283 12088,7286 12078,7291 12068,7297 12063,7308 12062,7324 L 12026,7324 C 12026,7311 12029,7299 12034,7290 12039,7281 12046,7273 12054,7267 12063,7262 12073,7257 12084,7255 12095,7252 12106,7251 12118,7251 12128,7251 12138,7252 12148,7253 12158,7255 12166,7257 12174,7262 12182,7266 12189,7272 12193,7280 12199,7288 12202,7298 12202,7311 L 12202,7425 C 12202,7433 12202,7439 12203,7443 12204,7447 12207,7449 12213,7449 12216,7449 12220,7449 12224,7447 L 12224,7475 C 12218,7479 12209,7481 12197,7481 Z"/>
       </g>
      </g>
      <g class="com.sun.star.drawing.ClosedBezierShape">
       <g id="id36">
        <rect class="BoundingBox" stroke="none" fill="none" x="12255" y="7251" width="117" height="227"/>
        <path fill="rgb(23,111,192)" stroke="none" d="M 12289,7256 L 12289,7302 12290,7302 C 12299,7284 12309,7271 12322,7263 12335,7254 12351,7250 12371,7251 L 12371,7289 C 12356,7289 12344,7291 12333,7295 12323,7299 12315,7305 12309,7312 12303,7320 12298,7329 12295,7340 12293,7351 12291,7364 12291,7378 L 12291,7476 12255,7476 12255,7256 12289,7256 Z"/>
       </g>
      </g>
      <g class="com.sun.star.drawing.ClosedBezierShape">
       <g id="id37">
        <rect class="BoundingBox" stroke="none" fill="none" x="12374" y="7250" width="202" height="315"/>
        <path fill="rgb(23,111,192)" stroke="none" d="M 12505,7439 C 12513,7434 12520,7428 12525,7420 12530,7412 12534,7403 12536,7393 12539,7382 12540,7372 12540,7362 12540,7353 12539,7343 12536,7334 12534,7323 12531,7315 12526,7308 12521,7300 12514,7294 12506,7290 12497,7285 12488,7283 12477,7283 12465,7283 12455,7285 12447,7289 12439,7294 12432,7300 12427,7307 12422,7314 12418,7323 12415,7333 12413,7343 12412,7353 12412,7363 12412,7373 12413,7383 12415,7393 12417,7403 12420,7412 12425,7420 12430,7428 12436,7434 12444,7439 12452,7444 12462,7447 12474,7447 12485,7447 12496,7444 12505,7439 Z M 12551,7538 C 12534,7556 12509,7564 12473,7564 12463,7564 12452,7563 12442,7561 12431,7559 12421,7555 12413,7550 12404,7545 12397,7538 12391,7530 12386,7522 12383,7512 12382,7500 L 12418,7500 C 12418,7507 12421,7512 12424,7517 12428,7521 12433,7525 12438,7528 12444,7530 12450,7533 12456,7534 12463,7535 12469,7536 12475,7536 12487,7536 12497,7534 12506,7530 12514,7525 12521,7520 12526,7513 12532,7505 12535,7497 12538,7487 12540,7476 12542,7465 12542,7453 L 12542,7439 12541,7439 C 12534,7452 12525,7462 12513,7469 12499,7475 12486,7478 12471,7478 12455,7478 12441,7475 12429,7469 12417,7463 12406,7455 12398,7445 12390,7435 12384,7424 12380,7410 12376,7397 12374,7383 12374,7368 12374,7355 12375,7341 12379,7327 12382,7313 12388,7301 12396,7289 12404,7278 12414,7269 12427,7262 12440,7255 12456,7251 12475,7251 12489,7251 12502,7254 12514,7260 12526,7266 12535,7275 12541,7287 L 12542,7287 12542,7256 12575,7256 12575,7457 C 12575,7493 12567,7520 12551,7538 Z"/>
       </g>
      </g>
      <g class="com.sun.star.drawing.ClosedBezierShape">
       <g id="id38">
        <rect class="BoundingBox" stroke="none" fill="none" x="12617" y="7251" width="204" height="231"/>
        <path fill="rgb(23,111,192)" stroke="none" d="M 12776,7320 C 12773,7313 12768,7306 12763,7301 12757,7295 12751,7291 12743,7288 12736,7284 12727,7283 12718,7283 12709,7283 12701,7284 12693,7288 12686,7291 12679,7295 12674,7301 12669,7307 12664,7313 12661,7321 12658,7328 12656,7336 12656,7345 L 12782,7345 C 12781,7336 12779,7328 12776,7320 Z M 12784,7462 C 12768,7474 12747,7481 12723,7481 12705,7481 12690,7478 12677,7472 12664,7467 12654,7459 12645,7448 12636,7438 12629,7426 12624,7412 12620,7397 12617,7382 12617,7365 12617,7348 12619,7333 12624,7319 12630,7305 12638,7293 12647,7283 12656,7273 12667,7265 12679,7259 12692,7254 12706,7251 12721,7251 12740,7251 12756,7255 12769,7263 12782,7271 12792,7281 12800,7294 12808,7306 12813,7320 12816,7334 12819,7349 12820,7363 12820,7376 L 12656,7376 C 12655,7386 12657,7395 12659,7404 12662,7413 12666,7421 12671,7427 12677,7434 12684,7439 12693,7443 12702,7447 12712,7449 12724,7449 12739,7449 12752,7446 12761,7439 12771,7432 12778,7421 12781,7406 L 12816,7406 C 12811,7431 12801,7450 12784,7462 Z"/>
       </g>
      </g>
      <g class="com.sun.star.drawing.ClosedBezierShape">
       <g id="id39">
        <rect class="BoundingBox" stroke="none" fill="none" x="12855" y="7251" width="117" height="227"/>
        <path fill="rgb(23,111,192)" stroke="none" d="M 12888,7256 L 12888,7302 12889,7302 C 12898,7284 12909,7271 12921,7263 12934,7254 12951,7250 12971,7251 L 12971,7289 C 12956,7289 12944,7291 12933,7295 12923,7299 12915,7305 12908,7312 12902,7320 12898,7329 12895,7340 12892,7351 12891,7364 12891,7378 L 12891,7476 12855,7476 12855,7256 12888,7256 Z"/>
       </g>
      </g>
      <g class="com.sun.star.drawing.ClosedBezierShape">
       <g id="id40">
        <rect class="BoundingBox" stroke="none" fill="none" x="11227" y="7677" width="124" height="308"/>
        <path fill="rgb(23,111,192)" stroke="none" d="M 11227,7797 L 11227,7764 11264,7764 11264,7732 C 11264,7714 11269,7700 11279,7691 11289,7682 11304,7677 11324,7677 11328,7677 11332,7678 11336,7678 11341,7679 11345,7680 11349,7681 L 11349,7712 C 11345,7711 11342,7710 11337,7710 11334,7709 11330,7709 11327,7709 11318,7709 11312,7711 11307,7714 11302,7718 11300,7724 11300,7734 L 11300,7764 11343,7764 11343,7797 11300,7797 11300,7984 11264,7984 11264,7797 11227,7797 Z"/>
       </g>
      </g>
      <g class="com.sun.star.drawing.ClosedBezierShape">
       <g id="id41">
        <rect class="BoundingBox" stroke="none" fill="none" x="11362" y="7759" width="215" height="231"/>
        <path fill="rgb(23,111,192)" stroke="none" d="M 11406,7910 C 11409,7920 11414,7929 11420,7936 11427,7943 11434,7948 11442,7952 11451,7955 11459,7957 11469,7957 11478,7957 11487,7955 11495,7952 11503,7948 11511,7943 11517,7936 11523,7929 11528,7920 11532,7910 11535,7900 11537,7888 11537,7875 11537,7861 11535,7849 11532,7838 11528,7828 11523,7819 11517,7812 11511,7805 11503,7800 11495,7796 11487,7793 11478,7791 11469,7791 11459,7791 11451,7793 11442,7796 11434,7800 11427,7805 11420,7812 11414,7819 11409,7828 11406,7838 11402,7849 11400,7861 11400,7875 11400,7888 11402,7900 11406,7910 Z M 11369,7829 C 11374,7815 11380,7803 11389,7792 11398,7782 11410,7774 11423,7768 11436,7762 11451,7759 11469,7759 11486,7759 11501,7762 11515,7768 11528,7774 11539,7782 11548,7792 11558,7803 11565,7815 11569,7829 11574,7843 11576,7858 11576,7875 11576,7891 11574,7906 11569,7920 11565,7933 11558,7946 11548,7956 11539,7966 11528,7974 11515,7980 11501,7986 11486,7989 11469,7989 11451,7989 11436,7986 11423,7980 11410,7974 11398,7966 11389,7956 11380,7946 11374,7933 11369,7920 11365,7906 11362,7891 11362,7875 11362,7858 11365,7843 11369,7829 Z"/>
       </g>
      </g>
      <g class="com.sun.star.drawing.ClosedBezierShape">
       <g id="id42">
        <rect class="BoundingBox" stroke="none" fill="none" x="11616" y="7758" width="117" height="228"/>
        <path fill="rgb(23,111,192)" stroke="none" d="M 11650,7764 L 11650,7810 11651,7810 C 11659,7793 11670,7779 11684,7771 11697,7762 11713,7758 11732,7759 L 11732,7797 C 11718,7797 11705,7799 11695,7803 11685,7807 11677,7813 11670,7820 11664,7828 11659,7837 11656,7848 11653,7859 11652,7871 11652,7886 L 11652,7984 11616,7984 11616,7764 11650,7764 Z"/>
       </g>
      </g>
      <g class="com.sun.star.drawing.ClosedBezierShape">
       <g id="id43">
        <rect class="BoundingBox" stroke="none" fill="none" x="11886" y="7683" width="115" height="302"/>
        <path fill="rgb(23,111,192)" stroke="none" d="M 11964,7984 L 11964,7768 11886,7768 11886,7739 C 11896,7739 11906,7738 11915,7737 11926,7735 11934,7732 11942,7728 11950,7724 11957,7718 11962,7711 11967,7703 11971,7694 11973,7683 L 12000,7683 12000,7984 11964,7984 Z"/>
       </g>
      </g>
      <g class="com.sun.star.drawing.ClosedBezierShape">
       <g id="id44">
        <rect class="BoundingBox" stroke="none" fill="none" x="12094" y="7683" width="201" height="302"/>
        <path fill="rgb(23,111,192)" stroke="none" d="M 12107,7747 C 12111,7734 12118,7723 12126,7713 12134,7704 12145,7696 12157,7691 12169,7686 12183,7683 12199,7683 12212,7683 12224,7685 12236,7689 12248,7692 12258,7698 12267,7705 12275,7712 12282,7721 12287,7732 12292,7743 12294,7755 12294,7769 12294,7782 12292,7794 12288,7804 12284,7814 12279,7824 12272,7832 12265,7840 12257,7847 12249,7853 12240,7860 12230,7866 12220,7872 12211,7878 12202,7883 12192,7889 12183,7894 12175,7900 12167,7906 12159,7913 12153,7919 12147,7926 12142,7934 12138,7942 12136,7952 L 12291,7952 12291,7984 12094,7984 C 12096,7966 12099,7951 12104,7937 12109,7925 12115,7914 12123,7905 12130,7895 12139,7887 12149,7880 12158,7873 12168,7866 12179,7860 12191,7852 12202,7845 12212,7838 12222,7832 12230,7825 12236,7818 12243,7812 12248,7804 12251,7796 12255,7788 12256,7779 12256,7769 12256,7761 12255,7753 12252,7747 12248,7740 12244,7734 12238,7729 12233,7725 12227,7721 12220,7718 12213,7716 12205,7715 12197,7715 12187,7715 12178,7717 12170,7721 12163,7726 12157,7731 12152,7738 12147,7745 12144,7753 12142,7762 12139,7771 12138,7780 12139,7789 L 12103,7789 C 12102,7774 12103,7760 12107,7747 Z"/>
       </g>
      </g>
      <g class="com.sun.star.drawing.ClosedBezierShape">
       <g id="id45">
        <rect class="BoundingBox" stroke="none" fill="none" x="12337" y="7683" width="202" height="307"/>
        <path fill="rgb(23,111,192)" stroke="none" d="M 12376,7874 C 12377,7888 12379,7901 12383,7913 12387,7926 12393,7936 12402,7945 12410,7953 12422,7957 12437,7957 12453,7957 12465,7953 12474,7945 12482,7936 12488,7926 12492,7913 12496,7901 12498,7888 12499,7874 12500,7860 12500,7848 12500,7836 12500,7829 12500,7821 12500,7812 12500,7803 12499,7794 12498,7785 12496,7776 12495,7768 12492,7759 12490,7750 12486,7742 12482,7736 12477,7730 12471,7724 12464,7721 12457,7717 12448,7715 12437,7715 12427,7715 12418,7717 12411,7721 12404,7724 12398,7730 12394,7736 12389,7742 12386,7750 12383,7759 12381,7768 12379,7776 12378,7785 12376,7794 12376,7803 12376,7812 12375,7821 12375,7829 12375,7836 12375,7848 12376,7860 12376,7874 Z M 12338,7802 C 12339,7791 12340,7779 12342,7768 12345,7756 12348,7745 12352,7734 12356,7724 12362,7715 12369,7708 12377,7700 12386,7694 12397,7690 12408,7685 12422,7683 12437,7683 12454,7683 12467,7685 12478,7690 12489,7694 12499,7700 12506,7708 12513,7715 12519,7724 12523,7734 12528,7745 12531,7756 12533,7768 12535,7779 12537,7791 12537,7802 12538,7814 12538,7826 12538,7837 12538,7848 12538,7859 12537,7871 12537,7883 12535,7894 12533,7906 12531,7917 12528,7928 12523,7938 12519,7948 12513,7956 12506,7964 12499,7972 12489,7978 12478,7982 12467,7986 12454,7989 12437,7989 12422,7989 12408,7986 12397,7982 12386,7978 12377,7972 12369,7964 12362,7956 12356,7948 12352,7938 12348,7928 12345,7917 12342,7906 12340,7894 12339,7883 12338,7871 12338,7859 12337,7848 12337,7837 12337,7826 12338,7814 12338,7802 Z"/>
       </g>
      </g>
      <g class="com.sun.star.drawing.ClosedBezierShape">
       <g id="id46">
        <rect class="BoundingBox" stroke="none" fill="none" x="12583" y="7759" width="210" height="309"/>
        <path fill="rgb(23,111,192)" stroke="none" d="M 12750,7843 C 12747,7833 12743,7823 12737,7816 12732,7808 12724,7802 12715,7798 12707,7793 12696,7791 12685,7791 12673,7791 12662,7793 12654,7798 12645,7803 12639,7809 12633,7817 12628,7825 12624,7834 12622,7844 12619,7854 12618,7864 12618,7874 12618,7885 12619,7895 12622,7905 12624,7915 12628,7924 12634,7932 12639,7940 12646,7946 12655,7950 12664,7955 12675,7957 12687,7957 12699,7957 12710,7955 12718,7950 12726,7945 12734,7939 12739,7931 12744,7923 12748,7914 12750,7904 12752,7894 12754,7883 12754,7873 12754,7862 12752,7853 12750,7843 Z M 12619,7764 L 12619,7794 12620,7794 C 12626,7782 12635,7773 12648,7767 12661,7762 12675,7759 12690,7759 12707,7759 12722,7762 12735,7768 12748,7775 12758,7783 12766,7794 12775,7804 12781,7816 12785,7831 12790,7845 12792,7860 12792,7875 12792,7891 12790,7905 12786,7919 12781,7933 12775,7945 12767,7955 12759,7966 12748,7974 12736,7980 12722,7986 12707,7989 12691,7989 12685,7989 12679,7988 12673,7987 12666,7986 12660,7984 12653,7981 12647,7979 12640,7975 12635,7971 12629,7967 12624,7961 12620,7955 L 12619,7955 12619,8067 12583,8067 12583,7764 12619,7764 Z"/>
       </g>
      </g>
      <g class="com.sun.star.drawing.PolyPolygonShape">
       <g id="id47">
        <rect class="BoundingBox" stroke="none" fill="none" x="12809" y="7764" width="214" height="221"/>
        <path fill="rgb(23,111,192)" stroke="none" d="M 12816,7764 L 12862,7764 12914,7841 12969,7764 13013,7764 12937,7865 13022,7984 12975,7984 12914,7892 12853,7984 12810,7984 12892,7868 12816,7764 Z"/>
       </g>
      </g>
      <g class="com.sun.star.drawing.PolyPolygonShape">
       <g id="id48">
        <rect class="BoundingBox" stroke="none" fill="none" x="13163" y="7769" width="216" height="216"/>
        <path fill="rgb(23,111,192)" stroke="none" d="M 13378,7862 L 13378,7891 13284,7891 13284,7984 13256,7984 13256,7891 13163,7891 13163,7862 13256,7862 13256,7769 13284,7769 13284,7862 13378,7862 Z"/>
       </g>
      </g>
      <g class="com.sun.star.drawing.ClosedBezierShape">
       <g id="id49">
        <rect class="BoundingBox" stroke="none" fill="none" x="4809" y="13526" width="1151" height="1124"/>
        <path fill="rgb(255,255,255)" stroke="none" d="M 5384,13526 C 5066,13526 4809,13784 4809,14102 4809,14356 4973,14571 5203,14647 5231,14653 5242,14635 5242,14620 5242,14606 5241,14570 5241,14522 5080,14557 5046,14445 5046,14445 5020,14379 4983,14361 4983,14361 4930,14325 4987,14326 4987,14326 5044,14330 5075,14385 5075,14385 5126,14473 5210,14448 5243,14433 5248,14396 5263,14370 5279,14356 5151,14342 5017,14292 5017,14072 5017,14009 5039,13957 5076,13917 5070,13902 5050,13844 5081,13765 5081,13765 5130,13749 5240,13824 5286,13811 5335,13805 5384,13804 5433,13805 5482,13811 5528,13824 5638,13749 5686,13765 5686,13765 5717,13844 5698,13902 5692,13917 5729,13957 5751,14009 5751,14072 5751,14293 5616,14341 5488,14356 5509,14373 5527,14408 5527,14462 5527,14539 5527,14601 5527,14620 5527,14635 5537,14653 5566,14647 5794,14571 5959,14356 5959,14102 5959,13784 5702,13526 5384,13526 Z"/>
       </g>
      </g>
      <g class="com.sun.star.drawing.ClosedBezierShape">
       <g id="id50">
        <rect class="BoundingBox" stroke="none" fill="none" x="10238" y="11797" width="4263" height="4158"/>
        <path fill="rgb(255,255,255)" stroke="none" d="M 12369,11797 C 11193,11797 10238,12751 10238,13928 10238,14870 10849,15669 11696,15950 11802,15970 11841,15904 11841,15848 11841,15797 11839,15629 11838,15451 11246,15580 11121,15200 11121,15200 11024,14954 10884,14888 10884,14888 10691,14756 10899,14759 10899,14759 11113,14774 11225,14978 11225,14978 11415,15304 11724,15210 11845,15155 11864,15018 11920,14924 11980,14870 11507,14817 11010,14634 11010,13817 11010,13584 11093,13394 11229,13245 11207,13191 11134,12974 11250,12681 11250,12681 11429,12624 11836,12899 12006,12852 12188,12828 12369,12828 12550,12828 12733,12852 12903,12899 13309,12624 13488,12681 13488,12681 13604,12974 13531,13191 13509,13245 13646,13394 13728,13584 13728,13817 13728,14636 13230,14816 12756,14869 12832,14935 12900,15064 12900,15263 12900,15548 12898,15778 12898,15848 12898,15905 12936,15971 13044,15950 13890,15668 14500,14870 14500,13928 14500,12751 13546,11797 12369,11797 Z"/>
       </g>
      </g>
      <g class="com.sun.star.drawing.ClosedBezierShape">
       <g id="id51">
        <rect class="BoundingBox" stroke="none" fill="none" x="10988" y="14819" width="62" height="50"/>
        <path fill="rgb(255,255,255)" stroke="none" d="M 11046,14857 C 11041,14868 11024,14871 11009,14864 10994,14857 10984,14842 10989,14831 10995,14820 11011,14817 11027,14824 11042,14831 11052,14847 11046,14857 Z"/>
       </g>
      </g>
      <g class="com.sun.star.drawing.ClosedBezierShape">
       <g id="id52">
        <rect class="BoundingBox" stroke="none" fill="none" x="11075" y="14893" width="65" height="66"/>
        <path fill="rgb(255,255,255)" stroke="none" d="M 11132,14953 C 11121,14963 11101,14958 11088,14943 11074,14928 11071,14908 11081,14898 11092,14889 11111,14893 11125,14908 11140,14923 11143,14943 11132,14953 Z"/>
       </g>
      </g>
      <g class="com.sun.star.drawing.ClosedBezierShape">
       <g id="id53">
        <rect class="BoundingBox" stroke="none" fill="none" x="11158" y="15002" width="70" height="79"/>
        <path fill="rgb(255,255,255)" stroke="none" d="M 11216,15076 C 11203,15085 11182,15077 11168,15058 11154,15039 11154,15016 11169,15006 11182,14997 11203,15005 11216,15025 11230,15044 11230,15067 11216,15076 Z"/>
       </g>
      </g>
      <g class="com.sun.star.drawing.ClosedBezierShape">
       <g id="id54">
        <rect class="BoundingBox" stroke="none" fill="none" x="11257" y="15123" width="83" height="81"/>
        <path fill="rgb(255,255,255)" stroke="none" d="M 11330,15194 C 11318,15207 11294,15203 11275,15186 11256,15168 11251,15144 11263,15131 11275,15117 11300,15121 11318,15139 11338,15156 11344,15181 11330,15194 Z"/>
       </g>
      </g>
      <g class="com.sun.star.drawing.ClosedBezierShape">
       <g id="id55">
        <rect class="BoundingBox" stroke="none" fill="none" x="11399" y="15216" width="93" height="70"/>
        <path fill="rgb(255,255,255)" stroke="none" d="M 11490,15264 C 11485,15281 11460,15289 11436,15282 11412,15273 11396,15254 11401,15237 11406,15220 11430,15211 11454,15220 11479,15227 11495,15247 11490,15264 Z"/>
       </g>
      </g>
      <g class="com.sun.star.drawing.ClosedBezierShape">
       <g id="id56">
        <rect class="BoundingBox" stroke="none" fill="none" x="11572" y="15244" width="94" height="66"/>
        <path fill="rgb(255,255,255)" stroke="none" d="M 11664,15275 C 11665,15294 11644,15308 11619,15309 11593,15309 11572,15295 11572,15277 11572,15259 11592,15245 11618,15244 11643,15244 11664,15258 11664,15275 Z"/>
       </g>
      </g>
      <g class="com.sun.star.drawing.ClosedBezierShape">
       <g id="id57">
        <rect class="BoundingBox" stroke="none" fill="none" x="11734" y="15222" width="94" height="69"/>
        <path fill="rgb(255,255,255)" stroke="none" d="M 11826,15248 C 11829,15266 11812,15283 11787,15288 11761,15293 11738,15282 11735,15265 11732,15246 11750,15229 11774,15224 11801,15220 11823,15230 11826,15248 Z"/>
       </g>
      </g>
      <g class="com.sun.star.drawing.LineShape">
       <g id="id58">
        <rect class="BoundingBox" stroke="none" fill="none" x="7915" y="11570" width="37" height="55"/>
        <path fill="none" stroke="rgb(58,127,195)" stroke-width="35" stroke-linejoin="miter" stroke-linecap="round" d="M 7933,11588 L 7933,11606"/>
       </g>
      </g>
      <g class="com.sun.star.drawing.LineShape">
       <g id="id59">
        <rect class="BoundingBox" stroke="none" fill="none" x="7915" y="11658" width="37" height="4764"/>
        <path fill="none" stroke="rgb(58,127,195)" stroke-width="35" stroke-linejoin="miter" stroke-linecap="round" d="M 7933,11676 L 7933,11711"/>
        <path fill="none" stroke="rgb(58,127,195)" stroke-width="35" stroke-linejoin="miter" stroke-linecap="round" d="M 7933,11781 L 7933,11816"/>
        <path fill="none" stroke="rgb(58,127,195)" stroke-width="35" stroke-linejoin="miter" stroke-linecap="round" d="M 7933,11886 L 7933,11921"/>
        <path fill="none" stroke="rgb(58,127,195)" stroke-width="35" stroke-linejoin="miter" stroke-linecap="round" d="M 7933,11991 L 7933,12026"/>
        <path fill="none" stroke="rgb(58,127,195)" stroke-width="35" stroke-linejoin="miter" stroke-linecap="round" d="M 7933,12096 L 7933,12131"/>
        <path fill="none" stroke="rgb(58,127,195)" stroke-width="35" stroke-linejoin="miter" stroke-linecap="round" d="M 7933,12201 L 7933,12236"/>
        <path fill="none" stroke="rgb(58,127,195)" stroke-width="35" stroke-linejoin="miter" stroke-linecap="round" d="M 7933,12306 L 7933,12341"/>
        <path fill="none" stroke="rgb(58,127,195)" stroke-width="35" stroke-linejoin="miter" stroke-linecap="round" d="M 7933,12411 L 7933,12446"/>
        <path fill="none" stroke="rgb(58,127,195)" stroke-width="35" stroke-linejoin="miter" stroke-linecap="round" d="M 7933,12516 L 7933,12551"/>
        <path fill="none" stroke="rgb(58,127,195)" stroke-width="35" stroke-linejoin="miter" stroke-linecap="round" d="M 7933,12621 L 7933,12656"/>
        <path fill="none" stroke="rgb(58,127,195)" stroke-width="35" stroke-linejoin="miter" stroke-linecap="round" d="M 7933,12726 L 7933,12761"/>
        <path fill="none" stroke="rgb(58,127,195)" stroke-width="35" stroke-linejoin="miter" stroke-linecap="round" d="M 7933,12831 L 7933,12866"/>
        <path fill="none" stroke="rgb(58,127,195)" stroke-width="35" stroke-linejoin="miter" stroke-linecap="round" d="M 7933,12936 L 7933,12971"/>
        <path fill="none" stroke="rgb(58,127,195)" stroke-width="35" stroke-linejoin="miter" stroke-linecap="round" d="M 7933,13041 L 7933,13076"/>
        <path fill="none" stroke="rgb(58,127,195)" stroke-width="35" stroke-linejoin="miter" stroke-linecap="round" d="M 7933,13146 L 7933,13181"/>
        <path fill="none" stroke="rgb(58,127,195)" stroke-width="35" stroke-linejoin="miter" stroke-linecap="round" d="M 7933,13251 L 7933,13286"/>
        <path fill="none" stroke="rgb(58,127,195)" stroke-width="35" stroke-linejoin="miter" stroke-linecap="round" d="M 7933,13356 L 7933,13391"/>
        <path fill="none" stroke="rgb(58,127,195)" stroke-width="35" stroke-linejoin="miter" stroke-linecap="round" d="M 7933,13461 L 7933,13496"/>
        <path fill="none" stroke="rgb(58,127,195)" stroke-width="35" stroke-linejoin="miter" stroke-linecap="round" d="M 7933,13566 L 7933,13601"/>
        <path fill="none" stroke="rgb(58,127,195)" stroke-width="35" stroke-linejoin="miter" stroke-linecap="round" d="M 7933,13671 L 7933,13706"/>
        <path fill="none" stroke="rgb(58,127,195)" stroke-width="35" stroke-linejoin="miter" stroke-linecap="round" d="M 7933,13776 L 7933,13811"/>
        <path fill="none" stroke="rgb(58,127,195)" stroke-width="35" stroke-linejoin="miter" stroke-linecap="round" d="M 7933,13881 L 7933,13916"/>
        <path fill="none" stroke="rgb(58,127,195)" stroke-width="35" stroke-linejoin="miter" stroke-linecap="round" d="M 7933,13986 L 7933,14021"/>
        <path fill="none" stroke="rgb(58,127,195)" stroke-width="35" stroke-linejoin="miter" stroke-linecap="round" d="M 7933,14091 L 7933,14126"/>
        <path fill="none" stroke="rgb(58,127,195)" stroke-width="35" stroke-linejoin="miter" stroke-linecap="round" d="M 7933,14196 L 7933,14231"/>
        <path fill="none" stroke="rgb(58,127,195)" stroke-width="35" stroke-linejoin="miter" stroke-linecap="round" d="M 7933,14301 L 7933,14336"/>
        <path fill="none" stroke="rgb(58,127,195)" stroke-width="35" stroke-linejoin="miter" stroke-linecap="round" d="M 7933,14406 L 7933,14441"/>
        <path fill="none" stroke="rgb(58,127,195)" stroke-width="35" stroke-linejoin="miter" stroke-linecap="round" d="M 7933,14511 L 7933,14546"/>
        <path fill="none" stroke="rgb(58,127,195)" stroke-width="35" stroke-linejoin="miter" stroke-linecap="round" d="M 7933,14616 L 7933,14651"/>
        <path fill="none" stroke="rgb(58,127,195)" stroke-width="35" stroke-linejoin="miter" stroke-linecap="round" d="M 7933,14721 L 7933,14756"/>
        <path fill="none" stroke="rgb(58,127,195)" stroke-width="35" stroke-linejoin="miter" stroke-linecap="round" d="M 7933,14826 L 7933,14861"/>
        <path fill="none" stroke="rgb(58,127,195)" stroke-width="35" stroke-linejoin="miter" stroke-linecap="round" d="M 7933,14931 L 7933,14966"/>
        <path fill="none" stroke="rgb(58,127,195)" stroke-width="35" stroke-linejoin="miter" stroke-linecap="round" d="M 7933,15036 L 7933,15071"/>
        <path fill="none" stroke="rgb(58,127,195)" stroke-width="35" stroke-linejoin="miter" stroke-linecap="round" d="M 7933,15141 L 7933,15176"/>
        <path fill="none" stroke="rgb(58,127,195)" stroke-width="35" stroke-linejoin="miter" stroke-linecap="round" d="M 7933,15246 L 7933,15281"/>
        <path fill="none" stroke="rgb(58,127,195)" stroke-width="35" stroke-linejoin="miter" stroke-linecap="round" d="M 7933,15351 L 7933,15386"/>
        <path fill="none" stroke="rgb(58,127,195)" stroke-width="35" stroke-linejoin="miter" stroke-linecap="round" d="M 7933,15456 L 7933,15491"/>
        <path fill="none" stroke="rgb(58,127,195)" stroke-width="35" stroke-linejoin="miter" stroke-linecap="round" d="M 7933,15561 L 7933,15596"/>
        <path fill="none" stroke="rgb(58,127,195)" stroke-width="35" stroke-linejoin="miter" stroke-linecap="round" d="M 7933,15666 L 7933,15701"/>
        <path fill="none" stroke="rgb(58,127,195)" stroke-width="35" stroke-linejoin="miter" stroke-linecap="round" d="M 7933,15771 L 7933,15806"/>
        <path fill="none" stroke="rgb(58,127,195)" stroke-width="35" stroke-linejoin="miter" stroke-linecap="round" d="M 7933,15876 L 7933,15911"/>
        <path fill="none" stroke="rgb(58,127,195)" stroke-width="35" stroke-linejoin="miter" stroke-linecap="round" d="M 7933,15981 L 7933,16016"/>
        <path fill="none" stroke="rgb(58,127,195)" stroke-width="35" stroke-linejoin="miter" stroke-linecap="round" d="M 7933,16086 L 7933,16121"/>
        <path fill="none" stroke="rgb(58,127,195)" stroke-width="35" stroke-linejoin="miter" stroke-linecap="round" d="M 7933,16191 L 7933,16226"/>
        <path fill="none" stroke="rgb(58,127,195)" stroke-width="35" stroke-linejoin="miter" stroke-linecap="round" d="M 7933,16296 L 7933,16331"/>
        <path fill="none" stroke="rgb(58,127,195)" stroke-width="35" stroke-linejoin="miter" stroke-linecap="round" d="M 7933,16401 L 7933,16403"/>
       </g>
      </g>
      <g class="com.sun.star.drawing.LineShape">
       <g id="id60">
        <rect class="BoundingBox" stroke="none" fill="none" x="7915" y="16421" width="37" height="54"/>
        <path fill="none" stroke="rgb(58,127,195)" stroke-width="35" stroke-linejoin="miter" stroke-linecap="round" d="M 7933,16439 L 7933,16456"/>
       </g>
      </g>
      <g class="com.sun.star.drawing.ClosedBezierShape">
       <g id="id61">
        <rect class="BoundingBox" stroke="none" fill="none" x="4532" y="16902" width="245" height="318"/>
        <path fill="rgb(23,111,192)" stroke="none" d="M 4701,16952 C 4688,16942 4671,16937 4650,16937 4641,16937 4633,16938 4625,16940 4617,16941 4609,16944 4603,16948 4597,16952 4592,16957 4588,16964 4584,16971 4582,16979 4582,16989 4582,16998 4585,17006 4590,17011 4596,17017 4603,17022 4612,17026 4621,17029 4632,17032 4643,17035 4655,17037 4667,17040 4679,17042 4691,17045 4703,17049 4714,17052 4727,17056 4737,17061 4746,17068 4755,17074 4763,17083 4768,17092 4774,17102 4776,17115 4776,17130 4776,17146 4773,17160 4766,17171 4758,17182 4749,17192 4738,17199 4727,17206 4713,17211 4699,17215 4685,17218 4671,17219 4657,17219 4640,17219 4624,17217 4609,17213 4594,17209 4581,17202 4570,17194 4558,17185 4549,17174 4542,17161 4536,17147 4532,17132 4532,17113 L 4571,17113 C 4571,17126 4573,17137 4578,17146 4583,17155 4589,17163 4597,17169 4606,17175 4615,17179 4626,17182 4636,17185 4647,17186 4659,17186 4668,17186 4677,17185 4686,17183 4695,17182 4703,17179 4711,17175 4718,17171 4725,17165 4729,17158 4734,17151 4736,17142 4736,17131 4736,17121 4734,17112 4728,17106 4722,17099 4714,17094 4705,17090 4696,17086 4685,17082 4674,17080 4662,17077 4651,17075 4639,17072 4627,17069 4615,17066 4603,17063 4592,17059 4581,17054 4572,17049 4563,17043 4556,17035 4550,17026 4545,17017 4542,17006 4542,16992 4542,16976 4545,16963 4551,16952 4557,16941 4566,16932 4576,16925 4586,16917 4598,16912 4611,16909 4624,16904 4638,16902 4651,16902 4667,16902 4681,16904 4695,16909 4708,16912 4721,16918 4731,16926 4741,16934 4748,16944 4754,16956 4760,16968 4763,16982 4764,16999 L 4726,16999 C 4723,16977 4715,16961 4701,16952 Z"/>
       </g>
      </g>
      <g class="com.sun.star.drawing.ClosedBezierShape">
       <g id="id62">
        <rect class="BoundingBox" stroke="none" fill="none" x="4818" y="16988" width="309" height="226"/>
        <path fill="rgb(23,111,192)" stroke="none" d="M 4852,16993 L 4852,17025 4853,17025 C 4869,17000 4893,16988 4924,16988 4937,16988 4949,16991 4960,16996 4971,17002 4979,17011 4984,17025 4991,17013 5001,17004 5013,16997 5025,16991 5038,16988 5053,16988 5064,16988 5074,16989 5083,16991 5092,16994 5100,16997 5106,17003 5112,17008 5117,17014 5121,17022 5124,17030 5126,17040 5126,17051 L 5126,17213 5090,17213 5090,17069 C 5090,17062 5090,17055 5088,17049 5087,17043 5085,17038 5082,17034 5079,17029 5075,17026 5069,17023 5064,17021 5057,17020 5047,17020 5029,17020 5015,17025 5005,17035 4995,17045 4990,17058 4990,17076 L 4990,17213 4954,17213 4954,17069 C 4954,17062 4953,17055 4952,17049 4951,17043 4948,17038 4945,17033 4942,17029 4938,17026 4933,17023 4928,17021 4921,17020 4913,17020 4902,17020 4893,17022 4886,17026 4878,17030 4872,17035 4868,17041 4863,17047 4859,17053 4857,17061 4855,17067 4854,17072 4854,17076 L 4854,17213 4818,17213 4818,16993 4852,16993 Z"/>
       </g>
      </g>
      <g class="com.sun.star.drawing.ClosedBezierShape">
       <g id="id63">
        <rect class="BoundingBox" stroke="none" fill="none" x="5167" y="16988" width="208" height="230"/>
        <path fill="rgb(23,111,192)" stroke="none" d="M 5298,17106 C 5291,17108 5283,17109 5275,17110 5267,17111 5259,17112 5251,17113 5242,17115 5235,17117 5229,17119 5221,17122 5216,17126 5212,17131 5208,17137 5206,17144 5206,17153 5206,17159 5207,17164 5209,17168 5212,17172 5215,17175 5218,17178 5222,17180 5227,17182 5233,17183 5238,17184 5244,17185 5249,17185 5261,17185 5271,17183 5279,17180 5288,17177 5295,17173 5300,17168 5305,17163 5309,17158 5312,17152 5315,17146 5316,17141 5316,17135 L 5316,17099 C 5311,17102 5305,17105 5298,17106 Z M 5348,17217 C 5339,17217 5332,17214 5326,17208 5321,17203 5318,17195 5318,17183 5308,17195 5297,17203 5283,17208 5270,17214 5256,17217 5241,17217 5231,17217 5221,17216 5212,17213 5203,17211 5195,17208 5189,17203 5182,17198 5177,17191 5173,17184 5169,17176 5167,17166 5167,17155 5167,17143 5170,17133 5174,17125 5178,17117 5184,17111 5191,17106 5197,17101 5205,17097 5214,17094 5223,17092 5233,17090 5243,17088 5252,17086 5262,17085 5271,17084 5280,17083 5287,17081 5294,17079 5301,17078 5306,17075 5310,17071 5314,17068 5316,17063 5316,17056 5316,17048 5315,17042 5312,17037 5309,17032 5305,17028 5300,17026 5296,17023 5290,17022 5285,17021 5279,17020 5273,17020 5268,17020 5252,17020 5240,17022 5229,17028 5218,17034 5213,17045 5212,17061 L 5176,17061 C 5176,17047 5179,17036 5184,17027 5189,17017 5196,17010 5205,17004 5213,16998 5223,16994 5235,16992 5246,16989 5258,16988 5270,16988 5280,16988 5289,16988 5299,16990 5309,16991 5318,16994 5326,16999 5333,17003 5340,17009 5345,17017 5349,17025 5352,17035 5352,17048 L 5352,17160 C 5352,17169 5352,17175 5353,17179 5354,17183 5358,17185 5363,17185 5366,17185 5370,17184 5374,17183 L 5374,17211 C 5368,17214 5359,17217 5348,17217 Z"/>
       </g>
      </g>
      <g class="com.sun.star.drawing.PolyPolygonShape">
       <g id="id64">
        <rect class="BoundingBox" stroke="none" fill="none" x="5409" y="16909" width="38" height="305"/>
        <path fill="rgb(23,111,192)" stroke="none" d="M 5446,17213 L 5409,17213 5409,16909 5446,16909 5446,17213 Z"/>
       </g>
      </g>
      <g class="com.sun.star.drawing.PolyPolygonShape">
       <g id="id65">
        <rect class="BoundingBox" stroke="none" fill="none" x="5503" y="16909" width="38" height="305"/>
        <path fill="rgb(23,111,192)" stroke="none" d="M 5540,17213 L 5503,17213 5503,16909 5540,16909 5540,17213 Z"/>
       </g>
      </g>
      <g class="com.sun.star.drawing.ClosedBezierShape">
       <g id="id66">
        <rect class="BoundingBox" stroke="none" fill="none" x="3593" y="17414" width="122" height="308"/>
        <path fill="rgb(23,111,192)" stroke="none" d="M 3593,17533 L 3593,17501 3630,17501 3630,17468 C 3630,17450 3635,17437 3645,17428 3655,17419 3671,17414 3691,17414 3694,17414 3698,17414 3703,17415 3707,17415 3711,17416 3714,17417 L 3714,17449 C 3711,17448 3708,17447 3704,17446 3701,17446 3697,17446 3694,17446 3685,17446 3678,17447 3674,17451 3669,17454 3666,17461 3666,17470 L 3666,17501 3709,17501 3709,17533 3666,17533 3666,17721 3630,17721 3630,17533 3593,17533 Z"/>
       </g>
      </g>
      <g class="com.sun.star.drawing.ClosedBezierShape">
       <g id="id67">
        <rect class="BoundingBox" stroke="none" fill="none" x="3728" y="17496" width="215" height="230"/>
        <path fill="rgb(23,111,192)" stroke="none" d="M 3772,17646 C 3775,17656 3780,17665 3786,17673 3792,17680 3800,17685 3808,17689 3816,17692 3825,17694 3834,17694 3844,17694 3853,17692 3861,17689 3869,17685 3876,17680 3883,17673 3889,17665 3894,17656 3897,17646 3901,17636 3903,17624 3903,17610 3903,17597 3901,17585 3897,17575 3894,17565 3889,17556 3883,17549 3876,17542 3869,17537 3861,17533 3853,17529 3844,17527 3834,17527 3825,17527 3816,17529 3808,17533 3800,17537 3792,17542 3786,17549 3780,17556 3775,17565 3772,17575 3768,17585 3766,17597 3766,17610 3766,17624 3768,17636 3772,17646 Z M 3735,17565 C 3739,17551 3746,17539 3755,17529 3764,17519 3775,17511 3789,17505 3802,17499 3817,17496 3834,17496 3852,17496 3867,17499 3880,17505 3893,17511 3905,17519 3914,17529 3924,17539 3930,17551 3935,17565 3939,17579 3942,17594 3942,17610 3942,17627 3939,17642 3935,17655 3930,17669 3924,17682 3914,17693 3905,17703 3893,17711 3880,17717 3867,17722 3852,17725 3834,17725 3817,17725 3802,17722 3789,17717 3775,17711 3764,17703 3755,17693 3746,17682 3739,17669 3735,17655 3730,17642 3728,17627 3728,17610 3728,17594 3730,17579 3735,17565 Z"/>
       </g>
      </g>
      <g class="com.sun.star.drawing.ClosedBezierShape">
       <g id="id68">
        <rect class="BoundingBox" stroke="none" fill="none" x="3981" y="17496" width="118" height="227"/>
        <path fill="rgb(23,111,192)" stroke="none" d="M 4016,17501 L 4016,17548 C 4025,17530 4036,17517 4049,17509 4061,17499 4077,17495 4098,17496 L 4098,17535 C 4082,17535 4070,17537 4060,17541 4050,17545 4042,17550 4035,17558 4029,17566 4025,17575 4022,17586 4019,17597 4018,17609 4018,17623 L 4018,17721 3982,17721 3982,17501 4016,17501 Z"/>
       </g>
      </g>
      <g class="com.sun.star.drawing.ClosedBezierShape">
       <g id="id69">
        <rect class="BoundingBox" stroke="none" fill="none" x="4251" y="17420" width="116" height="302"/>
        <path fill="rgb(23,111,192)" stroke="none" d="M 4329,17721 L 4329,17505 4251,17505 4251,17476 C 4262,17476 4271,17475 4281,17473 4291,17472 4299,17469 4307,17465 4315,17461 4321,17455 4327,17447 4332,17440 4336,17431 4338,17420 L 4366,17420 4366,17721 4329,17721 Z"/>
       </g>
      </g>
      <g class="com.sun.star.drawing.ClosedBezierShape">
       <g id="id70">
        <rect class="BoundingBox" stroke="none" fill="none" x="4466" y="17420" width="206" height="306"/>
        <path fill="rgb(23,111,192)" stroke="none" d="M 4544,17565 C 4537,17568 4530,17573 4525,17579 4519,17585 4515,17592 4513,17601 4510,17609 4509,17618 4509,17627 4509,17636 4510,17645 4513,17653 4516,17662 4520,17669 4525,17675 4530,17680 4537,17685 4545,17689 4552,17692 4561,17694 4572,17694 4582,17694 4591,17692 4598,17689 4606,17685 4612,17680 4617,17674 4622,17668 4626,17661 4629,17653 4631,17645 4633,17636 4633,17628 4633,17618 4631,17609 4629,17601 4627,17593 4623,17586 4618,17580 4613,17573 4606,17569 4599,17565 4591,17561 4582,17559 4572,17559 4561,17559 4552,17561 4544,17565 Z M 4611,17464 C 4602,17455 4590,17451 4576,17451 4560,17451 4547,17455 4538,17463 4529,17470 4521,17479 4516,17492 4511,17503 4507,17516 4505,17529 4503,17542 4502,17555 4502,17566 L 4503,17567 C 4511,17553 4522,17543 4534,17537 4547,17531 4561,17528 4579,17528 4593,17528 4606,17530 4617,17535 4629,17540 4639,17547 4646,17556 4654,17564 4660,17575 4664,17586 4669,17598 4671,17611 4671,17625 4671,17636 4669,17647 4666,17659 4662,17671 4657,17682 4649,17692 4641,17701 4631,17709 4618,17716 4605,17722 4589,17725 4570,17725 4547,17725 4529,17721 4516,17712 4502,17703 4492,17691 4484,17677 4477,17663 4472,17647 4470,17630 4467,17614 4466,17597 4466,17581 4466,17561 4468,17541 4471,17521 4475,17502 4481,17485 4489,17469 4498,17454 4509,17442 4523,17433 4537,17424 4555,17420 4577,17420 4602,17420 4622,17426 4637,17439 4651,17452 4660,17471 4662,17497 L 4626,17497 C 4624,17484 4619,17472 4611,17464 Z"/>
       </g>
      </g>
      <g class="com.sun.star.drawing.ClosedBezierShape">
       <g id="id71">
        <rect class="BoundingBox" stroke="none" fill="none" x="4714" y="17496" width="209" height="310"/>
        <path fill="rgb(23,111,192)" stroke="none" d="M 4880,17579 C 4877,17569 4873,17560 4868,17552 4861,17545 4854,17539 4846,17534 4837,17530 4827,17527 4815,17527 4803,17527 4793,17530 4784,17535 4776,17540 4769,17546 4764,17554 4758,17561 4754,17570 4752,17580 4750,17590 4748,17600 4748,17610 4748,17621 4750,17631 4752,17641 4755,17651 4759,17661 4764,17669 4770,17676 4777,17682 4786,17687 4794,17692 4805,17694 4817,17694 4830,17694 4840,17692 4848,17687 4857,17682 4863,17676 4870,17668 4875,17660 4878,17650 4881,17640 4883,17629 4884,17619 4884,17608 4884,17598 4883,17588 4880,17579 Z M 4750,17501 L 4750,17530 C 4756,17518 4766,17509 4778,17504 4791,17499 4805,17496 4820,17496 4837,17496 4852,17499 4866,17505 4878,17511 4889,17520 4897,17530 4905,17541 4911,17553 4916,17567 4920,17581 4922,17595 4922,17611 4922,17626 4920,17641 4916,17656 4912,17670 4906,17682 4897,17692 4889,17702 4879,17711 4866,17716 4852,17722 4838,17725 4821,17725 4816,17725 4810,17725 4803,17724 4797,17723 4790,17721 4784,17718 4777,17716 4771,17712 4765,17708 4759,17703 4754,17698 4750,17691 L 4750,17804 4714,17804 4714,17501 4750,17501 Z"/>
       </g>
      </g>
      <g class="com.sun.star.drawing.PolyPolygonShape">
       <g id="id72">
        <rect class="BoundingBox" stroke="none" fill="none" x="4940" y="17501" width="214" height="221"/>
        <path fill="rgb(23,111,192)" stroke="none" d="M 4946,17501 L 4993,17501 5046,17578 5100,17501 5143,17501 5068,17603 5153,17721 5107,17721 5046,17630 4985,17721 4940,17721 5023,17606 4946,17501 Z"/>
       </g>
      </g>
      <g class="com.sun.star.drawing.PolyPolygonShape">
       <g id="id73">
        <rect class="BoundingBox" stroke="none" fill="none" x="5177" y="17584" width="125" height="37"/>
        <path fill="rgb(23,111,192)" stroke="none" d="M 5300,17620 L 5177,17620 5177,17585 5300,17585 5300,17620 Z"/>
       </g>
      </g>
      <g class="com.sun.star.drawing.ClosedBezierShape">
       <g id="id74">
        <rect class="BoundingBox" stroke="none" fill="none" x="5357" y="17420" width="116" height="302"/>
        <path fill="rgb(23,111,192)" stroke="none" d="M 5436,17721 L 5436,17505 5357,17505 5357,17476 C 5367,17476 5378,17475 5388,17473 5397,17472 5406,17469 5414,17465 5422,17461 5428,17455 5433,17447 5439,17440 5442,17431 5444,17420 L 5472,17420 5472,17721 5436,17721 Z"/>
       </g>
      </g>
      <g class="com.sun.star.drawing.ClosedBezierShape">
       <g id="id75">
        <rect class="BoundingBox" stroke="none" fill="none" x="5566" y="17420" width="202" height="302"/>
        <path fill="rgb(23,111,192)" stroke="none" d="M 5579,17483 C 5583,17470 5589,17459 5597,17450 5606,17440 5616,17433 5628,17428 5641,17422 5656,17420 5672,17420 5685,17420 5697,17421 5708,17425 5720,17429 5730,17435 5738,17442 5747,17449 5753,17458 5758,17469 5763,17479 5766,17492 5766,17506 5766,17519 5764,17531 5760,17541 5756,17552 5750,17561 5743,17569 5737,17577 5729,17585 5720,17591 5711,17598 5702,17604 5693,17610 5684,17615 5674,17621 5665,17626 5656,17632 5647,17638 5638,17644 5631,17650 5624,17657 5619,17664 5613,17671 5609,17680 5608,17689 L 5763,17689 5763,17721 5566,17721 C 5567,17703 5570,17688 5575,17675 5580,17663 5587,17652 5594,17642 5602,17633 5610,17625 5620,17618 5630,17611 5640,17604 5651,17598 5664,17590 5675,17583 5684,17576 5694,17570 5702,17563 5708,17556 5715,17548 5720,17541 5723,17533 5726,17525 5728,17516 5728,17505 5728,17497 5726,17490 5723,17483 5720,17477 5716,17471 5711,17466 5705,17461 5699,17458 5692,17455 5685,17453 5678,17451 5670,17451 5659,17451 5650,17453 5642,17458 5634,17462 5628,17468 5623,17475 5619,17482 5615,17490 5613,17499 5611,17508 5610,17517 5610,17526 L 5574,17526 C 5573,17511 5575,17496 5579,17483 Z"/>
       </g>
      </g>
      <g class="com.sun.star.drawing.ClosedBezierShape">
       <g id="id76">
        <rect class="BoundingBox" stroke="none" fill="none" x="5809" y="17420" width="202" height="306"/>
        <path fill="rgb(23,111,192)" stroke="none" d="M 5848,17611 C 5849,17625 5851,17638 5855,17650 5859,17662 5865,17673 5874,17681 5883,17690 5894,17694 5910,17694 5925,17694 5937,17690 5945,17681 5954,17673 5960,17662 5964,17650 5967,17638 5970,17625 5970,17611 5971,17597 5972,17584 5972,17573 5972,17566 5971,17557 5971,17549 5971,17540 5970,17531 5969,17522 5968,17513 5966,17504 5964,17496 5961,17487 5958,17479 5953,17473 5948,17466 5943,17461 5936,17457 5928,17453 5920,17451 5910,17451 5900,17451 5891,17453 5884,17457 5877,17461 5870,17466 5865,17473 5861,17479 5857,17487 5855,17496 5852,17504 5851,17513 5849,17522 5848,17531 5847,17540 5847,17549 5847,17557 5847,17566 5847,17573 5847,17584 5847,17597 5848,17611 Z M 5810,17539 C 5810,17527 5812,17516 5814,17504 5816,17493 5819,17482 5824,17471 5828,17461 5834,17452 5841,17445 5848,17437 5858,17431 5869,17426 5881,17422 5894,17420 5910,17420 5925,17420 5939,17422 5950,17426 5961,17431 5970,17437 5977,17445 5985,17452 5991,17461 5995,17471 5999,17482 6002,17493 6005,17504 6007,17516 6008,17527 6009,17539 6009,17551 6010,17562 6010,17573 6010,17584 6009,17596 6009,17608 6008,17619 6007,17631 6005,17642 6002,17654 5999,17664 5995,17674 5991,17684 5985,17693 5977,17701 5970,17708 5961,17714 5950,17719 5939,17723 5926,17725 5910,17725 5894,17725 5881,17723 5869,17719 5858,17714 5848,17708 5841,17701 5834,17693 5828,17684 5824,17674 5819,17664 5816,17654 5814,17642 5812,17631 5810,17619 5810,17608 5809,17596 5809,17584 5809,17573 5809,17562 5809,17551 5810,17539 Z"/>
       </g>
      </g>
      <g class="com.sun.star.drawing.ClosedBezierShape">
       <g id="id77">
        <rect class="BoundingBox" stroke="none" fill="none" x="6055" y="17496" width="209" height="310"/>
        <path fill="rgb(23,111,192)" stroke="none" d="M 6221,17579 C 6218,17569 6214,17560 6209,17552 6203,17545 6196,17539 6188,17534 6179,17530 6169,17527 6157,17527 6145,17527 6135,17530 6126,17535 6118,17540 6111,17546 6105,17554 6099,17561 6095,17570 6093,17580 6091,17590 6089,17600 6089,17610 6089,17621 6091,17631 6093,17641 6096,17651 6100,17661 6105,17669 6112,17676 6119,17682 6128,17687 6136,17692 6147,17694 6159,17694 6172,17694 6182,17692 6191,17687 6199,17682 6206,17676 6211,17668 6216,17660 6219,17650 6222,17640 6224,17629 6225,17619 6225,17608 6225,17598 6224,17588 6221,17579 Z M 6091,17501 L 6091,17530 6092,17530 C 6098,17518 6108,17509 6121,17504 6133,17499 6147,17496 6162,17496 6179,17496 6194,17499 6207,17505 6219,17511 6230,17520 6238,17530 6246,17541 6253,17553 6257,17567 6261,17581 6263,17595 6263,17611 6263,17626 6261,17641 6257,17656 6253,17670 6247,17682 6238,17692 6230,17702 6220,17711 6207,17716 6195,17722 6180,17725 6163,17725 6158,17725 6152,17725 6145,17724 6139,17723 6132,17721 6126,17718 6119,17716 6113,17712 6106,17708 6100,17703 6096,17698 6092,17691 L 6091,17691 6091,17804 6055,17804 6055,17501 6091,17501 Z"/>
       </g>
      </g>
      <g class="com.sun.star.drawing.PolyPolygonShape">
       <g id="id78">
        <rect class="BoundingBox" stroke="none" fill="none" x="6281" y="17501" width="214" height="221"/>
        <path fill="rgb(23,111,192)" stroke="none" d="M 6287,17501 L 6333,17501 6386,17578 6441,17501 6485,17501 6408,17603 6494,17721 6448,17721 6386,17630 6325,17721 6281,17721 6363,17606 6287,17501 Z"/>
       </g>
      </g>
      <g class="com.sun.star.drawing.PolyPolygonShape">
       <g id="id79">
        <rect class="BoundingBox" stroke="none" fill="none" x="11800" y="16909" width="202" height="305"/>
        <path fill="rgb(23,111,192)" stroke="none" d="M 11840,16909 L 11840,17179 12001,17179 12001,17213 11800,17213 11800,16909 11840,16909 Z"/>
       </g>
      </g>
      <g class="com.sun.star.drawing.ClosedBezierShape">
       <g id="id80">
        <rect class="BoundingBox" stroke="none" fill="none" x="12017" y="16988" width="208" height="230"/>
        <path fill="rgb(23,111,192)" stroke="none" d="M 12147,17106 C 12139,17108 12132,17109 12124,17110 12116,17111 12108,17112 12099,17113 12091,17115 12084,17117 12077,17119 12071,17122 12066,17126 12062,17131 12057,17137 12055,17144 12055,17153 12055,17159 12057,17164 12059,17168 12061,17172 12064,17175 12068,17178 12072,17180 12077,17182 12082,17183 12087,17184 12092,17185 12098,17185 12110,17185 12120,17183 12128,17180 12137,17177 12144,17173 12149,17168 12154,17163 12158,17158 12161,17152 12163,17146 12165,17141 12165,17135 L 12165,17099 C 12160,17102 12154,17104 12147,17106 Z M 12197,17217 C 12188,17217 12180,17214 12175,17208 12169,17203 12167,17195 12167,17183 12157,17195 12145,17203 12132,17208 12119,17214 12105,17217 12090,17217 12080,17217 12070,17216 12062,17213 12053,17211 12045,17207 12039,17203 12032,17198 12027,17191 12023,17183 12019,17176 12017,17166 12017,17155 12017,17143 12019,17133 12024,17125 12028,17117 12033,17111 12040,17106 12047,17101 12055,17097 12064,17094 12073,17092 12082,17090 12091,17088 12101,17086 12111,17085 12120,17084 12128,17083 12136,17081 12143,17079 12150,17078 12155,17075 12159,17071 12163,17068 12165,17063 12165,17056 12165,17048 12164,17042 12161,17037 12158,17032 12154,17028 12149,17026 12144,17023 12139,17022 12133,17021 12128,17020 12122,17019 12116,17019 12101,17019 12088,17022 12078,17028 12068,17034 12063,17045 12062,17061 L 12026,17061 C 12026,17047 12029,17036 12034,17027 12039,17017 12046,17010 12054,17004 12063,16998 12073,16994 12084,16992 12095,16989 12106,16988 12118,16988 12128,16988 12138,16988 12148,16990 12158,16991 12166,16994 12174,16998 12182,17003 12189,17009 12193,17017 12199,17025 12202,17035 12202,17048 L 12202,17160 C 12202,17169 12202,17175 12203,17179 12204,17183 12207,17185 12213,17185 12216,17185 12220,17184 12224,17183 L 12224,17211 C 12218,17214 12209,17217 12197,17217 Z"/>
       </g>
      </g>
      <g class="com.sun.star.drawing.ClosedBezierShape">
       <g id="id81">
        <rect class="BoundingBox" stroke="none" fill="none" x="12255" y="16988" width="117" height="227"/>
        <path fill="rgb(23,111,192)" stroke="none" d="M 12289,16993 L 12289,17039 12290,17039 C 12299,17021 12309,17008 12322,17000 12335,16991 12351,16987 12371,16988 L 12371,17026 C 12356,17026 12344,17028 12333,17032 12323,17036 12315,17041 12309,17049 12303,17057 12298,17067 12295,17078 12293,17089 12291,17101 12291,17115 L 12291,17213 12255,17213 12255,16993 12289,16993 Z"/>
       </g>
      </g>
      <g class="com.sun.star.drawing.ClosedBezierShape">
       <g id="id82">
        <rect class="BoundingBox" stroke="none" fill="none" x="12374" y="16988" width="202" height="314"/>
        <path fill="rgb(23,111,192)" stroke="none" d="M 12505,17176 C 12513,17171 12520,17165 12525,17157 12530,17149 12534,17139 12536,17129 12539,17119 12540,17109 12540,17099 12540,17089 12539,17080 12536,17070 12534,17061 12531,17053 12526,17045 12521,17038 12514,17032 12506,17027 12497,17023 12488,17020 12477,17020 12465,17020 12455,17023 12447,17027 12439,17031 12432,17037 12427,17045 12422,17052 12418,17060 12415,17070 12413,17080 12412,17090 12412,17100 12412,17110 12413,17120 12415,17130 12417,17140 12420,17149 12425,17157 12430,17165 12436,17171 12444,17176 12452,17181 12462,17183 12474,17183 12485,17183 12496,17181 12505,17176 Z M 12551,17274 C 12534,17292 12509,17301 12473,17301 12463,17301 12452,17300 12442,17298 12431,17295 12421,17292 12413,17287 12404,17282 12397,17275 12391,17267 12386,17259 12383,17249 12382,17237 L 12418,17237 C 12418,17243 12421,17249 12424,17253 12428,17258 12433,17261 12438,17264 12444,17267 12450,17269 12456,17270 12463,17272 12469,17272 12475,17272 12487,17272 12497,17270 12506,17266 12514,17262 12521,17256 12526,17249 12532,17242 12535,17233 12538,17223 12540,17213 12542,17202 12542,17190 L 12542,17175 12541,17175 C 12534,17189 12525,17199 12513,17205 12499,17212 12486,17215 12471,17215 12455,17215 12441,17212 12429,17206 12417,17200 12406,17192 12398,17182 12390,17172 12384,17160 12380,17147 12376,17133 12374,17119 12374,17104 12374,17091 12375,17078 12379,17064 12382,17051 12388,17038 12396,17027 12404,17016 12414,17007 12427,16998 12440,16991 12456,16988 12475,16988 12489,16988 12502,16991 12514,16997 12526,17003 12535,17013 12541,17025 L 12542,17025 12542,16993 12575,16993 12575,17194 C 12575,17230 12567,17257 12551,17274 Z"/>
       </g>
      </g>
      <g class="com.sun.star.drawing.ClosedBezierShape">
       <g id="id83">
        <rect class="BoundingBox" stroke="none" fill="none" x="12617" y="16988" width="204" height="230"/>
        <path fill="rgb(23,111,192)" stroke="none" d="M 12776,17057 C 12773,17050 12768,17043 12763,17037 12757,17032 12751,17028 12743,17024 12736,17021 12727,17019 12718,17019 12709,17019 12701,17021 12693,17024 12686,17028 12679,17032 12674,17038 12669,17043 12664,17050 12661,17057 12658,17065 12656,17073 12656,17081 L 12782,17081 C 12781,17073 12779,17065 12776,17057 Z M 12784,17198 C 12768,17210 12747,17217 12723,17217 12705,17217 12690,17213 12677,17208 12664,17202 12654,17194 12645,17184 12636,17174 12629,17162 12624,17148 12620,17134 12617,17118 12617,17102 12617,17085 12619,17070 12624,17056 12630,17042 12638,17030 12647,17020 12656,17010 12667,17002 12679,16996 12692,16991 12706,16988 12721,16988 12740,16988 12756,16992 12769,17000 12782,17008 12792,17018 12800,17030 12808,17043 12813,17056 12816,17071 12819,17086 12820,17100 12820,17113 L 12656,17113 C 12655,17123 12657,17132 12659,17140 12662,17149 12666,17157 12671,17163 12677,17170 12684,17175 12693,17179 12702,17183 12712,17185 12724,17185 12739,17185 12752,17181 12761,17174 12771,17167 12778,17157 12781,17142 L 12816,17142 C 12811,17167 12801,17185 12784,17198 Z"/>
       </g>
      </g>
      <g class="com.sun.star.drawing.ClosedBezierShape">
       <g id="id84">
        <rect class="BoundingBox" stroke="none" fill="none" x="12855" y="16988" width="117" height="227"/>
        <path fill="rgb(23,111,192)" stroke="none" d="M 12888,16993 L 12888,17039 12889,17039 C 12898,17021 12909,17008 12921,17000 12934,16991 12951,16987 12971,16988 L 12971,17026 C 12956,17026 12944,17028 12933,17032 12923,17036 12915,17041 12908,17049 12902,17057 12898,17067 12895,17078 12892,17089 12891,17101 12891,17115 L 12891,17213 12855,17213 12855,16993 12888,16993 Z"/>
       </g>
      </g>
      <g class="com.sun.star.drawing.ClosedBezierShape">
       <g id="id85">
        <rect class="BoundingBox" stroke="none" fill="none" x="11227" y="17414" width="124" height="308"/>
        <path fill="rgb(23,111,192)" stroke="none" d="M 11227,17533 L 11227,17501 11264,17501 11264,17468 C 11264,17450 11269,17437 11279,17428 11289,17419 11304,17414 11324,17414 11328,17414 11332,17414 11336,17415 11341,17415 11345,17416 11349,17417 L 11349,17449 C 11345,17448 11342,17447 11337,17446 11334,17446 11330,17446 11327,17446 11318,17446 11312,17447 11307,17451 11302,17454 11300,17461 11300,17470 L 11300,17501 11343,17501 11343,17533 11300,17533 11300,17721 11264,17721 11264,17533 11227,17533 Z"/>
       </g>
      </g>
      <g class="com.sun.star.drawing.ClosedBezierShape">
       <g id="id86">
        <rect class="BoundingBox" stroke="none" fill="none" x="11362" y="17496" width="215" height="230"/>
        <path fill="rgb(23,111,192)" stroke="none" d="M 11406,17646 C 11409,17656 11414,17665 11420,17673 11427,17680 11434,17685 11442,17688 11451,17692 11459,17694 11469,17694 11478,17694 11487,17692 11495,17688 11503,17685 11511,17680 11517,17673 11523,17665 11528,17656 11532,17646 11535,17635 11537,17624 11537,17610 11537,17597 11535,17585 11532,17575 11528,17565 11523,17556 11517,17549 11511,17542 11503,17537 11495,17533 11487,17529 11478,17527 11469,17527 11459,17527 11451,17529 11442,17533 11434,17537 11427,17542 11420,17549 11414,17556 11409,17565 11406,17575 11402,17585 11400,17597 11400,17610 11400,17624 11402,17635 11406,17646 Z M 11369,17565 C 11374,17551 11380,17539 11389,17529 11398,17519 11410,17510 11423,17505 11436,17499 11451,17496 11469,17496 11486,17496 11501,17499 11515,17505 11528,17510 11539,17519 11548,17529 11558,17539 11565,17551 11569,17565 11574,17579 11576,17594 11576,17610 11576,17627 11574,17641 11569,17655 11565,17669 11558,17682 11548,17693 11539,17703 11528,17711 11515,17717 11501,17722 11486,17725 11469,17725 11451,17725 11436,17722 11423,17717 11410,17711 11398,17703 11389,17693 11380,17682 11374,17669 11369,17655 11365,17641 11362,17627 11362,17610 11362,17594 11365,17579 11369,17565 Z"/>
       </g>
      </g>
      <g class="com.sun.star.drawing.ClosedBezierShape">
       <g id="id87">
        <rect class="BoundingBox" stroke="none" fill="none" x="11616" y="17496" width="117" height="227"/>
        <path fill="rgb(23,111,192)" stroke="none" d="M 11650,17501 L 11650,17548 11651,17548 C 11659,17530 11670,17517 11684,17509 11697,17499 11713,17495 11732,17496 L 11732,17535 C 11718,17535 11705,17537 11695,17541 11685,17545 11677,17550 11670,17558 11664,17566 11659,17575 11656,17586 11653,17597 11652,17609 11652,17623 L 11652,17721 11616,17721 11616,17501 11650,17501 Z"/>
       </g>
      </g>
      <g class="com.sun.star.drawing.ClosedBezierShape">
       <g id="id88">
        <rect class="BoundingBox" stroke="none" fill="none" x="11886" y="17420" width="115" height="302"/>
        <path fill="rgb(23,111,192)" stroke="none" d="M 11964,17721 L 11964,17505 11886,17505 11886,17476 C 11896,17476 11906,17475 11915,17474 11926,17472 11934,17469 11942,17465 11950,17461 11957,17455 11962,17447 11967,17440 11971,17431 11973,17420 L 12000,17420 12000,17721 11964,17721 Z"/>
       </g>
      </g>
      <g class="com.sun.star.drawing.ClosedBezierShape">
       <g id="id89">
        <rect class="BoundingBox" stroke="none" fill="none" x="12094" y="17420" width="201" height="302"/>
        <path fill="rgb(23,111,192)" stroke="none" d="M 12107,17483 C 12111,17470 12118,17459 12126,17450 12134,17440 12145,17433 12157,17428 12169,17422 12183,17420 12199,17420 12212,17420 12224,17421 12236,17425 12248,17429 12258,17435 12267,17442 12275,17449 12282,17458 12287,17469 12292,17479 12294,17492 12294,17506 12294,17519 12292,17531 12288,17541 12284,17552 12279,17561 12272,17569 12265,17577 12257,17585 12249,17591 12240,17598 12230,17604 12220,17610 12211,17615 12202,17621 12192,17626 12183,17632 12175,17638 12167,17644 12159,17650 12153,17657 12147,17664 12142,17671 12138,17680 12136,17689 L 12291,17689 12291,17721 12094,17721 C 12096,17703 12099,17688 12104,17675 12109,17663 12115,17652 12123,17642 12130,17633 12139,17625 12149,17618 12158,17611 12168,17604 12179,17598 12191,17590 12202,17583 12212,17576 12222,17569 12230,17563 12236,17556 12243,17548 12248,17541 12251,17533 12255,17525 12256,17516 12256,17505 12256,17497 12255,17490 12252,17483 12248,17477 12244,17471 12238,17466 12233,17461 12227,17458 12220,17455 12213,17453 12205,17451 12197,17451 12187,17451 12178,17453 12170,17458 12163,17462 12157,17468 12152,17475 12147,17482 12144,17490 12142,17499 12139,17508 12138,17517 12139,17526 L 12103,17526 C 12102,17511 12103,17496 12107,17483 Z"/>
       </g>
      </g>
      <g class="com.sun.star.drawing.ClosedBezierShape">
       <g id="id90">
        <rect class="BoundingBox" stroke="none" fill="none" x="12337" y="17419" width="202" height="307"/>
        <path fill="rgb(23,111,192)" stroke="none" d="M 12376,17611 C 12377,17625 12379,17638 12383,17650 12387,17662 12393,17673 12402,17681 12410,17690 12422,17694 12437,17694 12453,17694 12465,17690 12474,17681 12482,17673 12488,17662 12492,17650 12496,17638 12498,17625 12499,17611 12500,17597 12500,17584 12500,17573 12500,17566 12500,17557 12500,17549 12500,17540 12499,17531 12498,17522 12496,17513 12495,17504 12492,17496 12490,17487 12486,17479 12482,17473 12477,17466 12471,17461 12464,17457 12457,17453 12448,17451 12437,17451 12427,17451 12418,17453 12411,17457 12404,17461 12398,17466 12394,17473 12389,17479 12386,17487 12383,17496 12381,17504 12379,17513 12378,17522 12376,17531 12376,17540 12376,17549 12375,17557 12375,17566 12375,17573 12375,17584 12376,17597 12376,17611 Z M 12338,17539 C 12339,17527 12340,17516 12342,17504 12345,17493 12348,17482 12352,17471 12356,17461 12362,17452 12369,17444 12377,17437 12386,17431 12397,17426 12408,17422 12422,17419 12437,17419 12454,17419 12467,17422 12478,17426 12489,17431 12499,17437 12506,17444 12513,17452 12519,17461 12523,17471 12528,17482 12531,17493 12533,17504 12535,17516 12537,17527 12537,17539 12538,17551 12538,17562 12538,17573 12538,17584 12538,17596 12537,17608 12537,17619 12535,17631 12533,17642 12531,17654 12528,17664 12523,17674 12519,17684 12513,17693 12506,17701 12499,17708 12489,17714 12478,17719 12467,17723 12454,17725 12437,17725 12422,17725 12408,17723 12397,17719 12386,17714 12377,17708 12369,17701 12362,17693 12356,17684 12352,17674 12348,17664 12345,17654 12342,17642 12340,17631 12339,17619 12338,17608 12338,17596 12337,17584 12337,17573 12337,17562 12338,17551 12338,17539 Z"/>
       </g>
      </g>
      <g class="com.sun.star.drawing.ClosedBezierShape">
       <g id="id91">
        <rect class="BoundingBox" stroke="none" fill="none" x="12583" y="17496" width="210" height="310"/>
        <path fill="rgb(23,111,192)" stroke="none" d="M 12750,17578 C 12747,17569 12743,17560 12737,17552 12732,17545 12724,17539 12715,17534 12707,17530 12696,17527 12685,17527 12673,17527 12662,17530 12654,17535 12645,17539 12639,17546 12633,17553 12628,17561 12624,17570 12622,17580 12619,17590 12618,17600 12618,17610 12618,17621 12619,17631 12622,17641 12624,17651 12628,17661 12634,17669 12639,17676 12646,17682 12655,17687 12664,17692 12675,17694 12687,17694 12699,17694 12710,17692 12718,17687 12726,17682 12734,17676 12739,17668 12744,17660 12748,17650 12750,17640 12752,17629 12754,17619 12754,17608 12754,17598 12752,17588 12750,17578 Z M 12619,17501 L 12619,17530 12620,17530 C 12626,17518 12635,17509 12648,17504 12661,17498 12675,17496 12690,17496 12707,17496 12722,17499 12735,17505 12748,17511 12758,17520 12766,17530 12775,17541 12781,17553 12785,17567 12790,17581 12792,17595 12792,17611 12792,17626 12790,17641 12786,17656 12781,17670 12775,17682 12767,17692 12759,17702 12748,17710 12736,17716 12722,17722 12707,17725 12691,17725 12685,17725 12679,17725 12673,17724 12666,17722 12660,17721 12653,17718 12647,17716 12640,17712 12635,17708 12629,17703 12624,17698 12620,17691 L 12619,17691 12619,17804 12583,17804 12583,17501 12619,17501 Z"/>
       </g>
      </g>
      <g class="com.sun.star.drawing.PolyPolygonShape">
       <g id="id92">
        <rect class="BoundingBox" stroke="none" fill="none" x="12809" y="17501" width="214" height="221"/>
        <path fill="rgb(23,111,192)" stroke="none" d="M 12816,17501 L 12862,17501 12914,17578 12969,17501 13013,17501 12937,17602 13022,17721 12975,17721 12914,17630 12853,17721 12810,17721 12892,17605 12816,17501 Z"/>
       </g>
      </g>
      <g class="com.sun.star.drawing.PolyPolygonShape">
       <g id="id93">
        <rect class="BoundingBox" stroke="none" fill="none" x="13163" y="17504" width="216" height="218"/>
        <path fill="rgb(23,111,192)" stroke="none" d="M 13378,17598 L 13378,17627 13284,17627 13284,17721 13256,17721 13256,17627 13163,17627 13163,17598 13256,17598 13256,17505 13284,17505 13284,17598 13378,17598 Z"/>
       </g>
      </g>
     </g>
    </g>
   </g>
  </g>
 </g>
</svg>